<svg id="Layer_1" data-name="Layer 1" xmlns="http://www.w3.org/2000/svg" viewBox="0 0 1080 1080"><defs><style>.cls-1{fill:#767fff;}.cls-2{fill:#575692;}</style></defs><g id="Medical_Staff" data-name="Medical Staff"><path class="cls-1" d="M397.48,547.78c5.18,23.57,9.92,46.32,15.18,68.91,16.42,70.45,36,139.72,63.82,205.29,16.57,39,35.47,76.7,53.43,114.92a56.24,56.24,0,0,0,6.46,10.58c4.61,5.95,9.92,5.94,14.33-.42a157.6,157.6,0,0,0,10.22-17.63q75-144.81,112.15-308.13c5.49-24.15,10.71-48.38,16.18-73.13a35.67,35.67,0,0,1,4.22,1.5c46.43,22.84,93.07,45.14,139.22,68.71,53.17,27.15,89.07,74,111.79,135.36C959.8,795.15,970.07,838,973.39,883c.57,7.64.48,15.35.74,23,.28,8.53-3.09,14-9.85,17.41-26.46,13.19-53.92,22.74-81.93,30.26-48.91,13.14-98.52,20.9-148.45,26.35C651,989,568,991.1,484.83,988.91A1540.68,1540.68,0,0,1,328.7,977.24c-52.56-6.75-104.79-15.86-155.63-33.21-17.07-5.83-33.64-13.64-50.4-20.65-7.13-3-10.23-9.11-10-17.85,1.71-74.52,19.93-143.19,55.45-205.26,19.47-34,46.26-59,77.71-77.26,42.74-24.79,87-45.44,131.36-66C383.75,554,390.39,551,397.48,547.78Z"/><path class="cls-2" d="M542.58,909c-12-26-23.11-51.28-35.18-75.88-5.7-11.6-6.76-22.43-3.4-35.15,3.81-14.46,6-29.49,8.93-44.27,1.59-8,3.09-9.4,10.08-9.42q20.4-.06,40.79,0c6.83,0,8.45,1.44,9.94,8.89,3.9,19.57,7.8,39.14,11.51,58.75.46,2.47.45,5.68-.53,7.81-13.18,28.65-26.58,57.17-39.93,85.72C544.47,906.07,544,906.65,542.58,909Z"/><path class="cls-2" d="M543.33,650.24c10.86,0,21.72,0,32.58,0,7.52,0,10,3.66,8.6,12.28q-4.74,28.37-9.53,56.74c-1.25,7.43-3.11,9.23-9.64,9.25q-21.89.06-43.78,0c-6.59,0-8.55-1.88-9.77-9.09q-4.8-28.66-9.57-57.33c-1.35-8.13,1.25-11.81,8.53-11.86C521.61,650.19,532.47,650.24,543.33,650.24Z"/><path class="cls-1" d="M548.62,84a206.4,206.4,0,0,1,59,8.45c19.7,5.86,37.79,14.76,53.77,27.59a126.24,126.24,0,0,1,34.9,43.06A160.94,160.94,0,0,1,713,227.91c.45,10.56,1.17,21.14.89,31.68-.25,9.12-1.64,18.21-2.75,27.28-.65,5.35-1.69,10.67-2.67,16-.55,3,.51,4.42,3.45,5.63,8.47,3.48,14.27,9.56,16.19,18.82,2.82,13.59-.6,26.18-5.88,38.58-5.35,12.55-12.6,24-19.78,35.5-3.25,5.23-5.05,11.37-7.58,17.07-3.11,7-5.85,14.24-9.56,20.92-6.29,11.32-12.8,22.57-20,33.34-12.07,18.11-26.3,34.47-43.69,47.69-15.72,11.94-33,21-52.58,24.94-20,4-39.59,3.23-59.09-3.21-27.6-9.11-50-25.56-69.3-46.88a209.11,209.11,0,0,1-27.51-37.74c-7.1-12.64-13.37-25.79-19.22-39.06a218,218,0,0,0-16.24-30.37c-8.31-12.87-14.89-26.53-18.08-41.75-1.7-8.09-1.62-15.77,1.62-23.26s9.39-12,17-14.53c4.2-1.41,4.55-2.51,3.44-6.67a123.8,123.8,0,0,1-2.86-13.75c-3-20.08-4.07-40.3-2.15-60.5,1.68-17.72,5.12-35.09,12-51.78,6.75-16.33,15.77-31,28-43.68,10-10.35,21.24-19.24,34.27-25.44,9.85-4.68,19.94-8.91,30.16-12.69A108.23,108.23,0,0,1,501,89c12.08-2,24.26-3.45,36.43-4.89C541.11,83.64,544.89,84,548.62,84ZM414,333.54l-.86.15c-.27-.46-.56-.91-.82-1.37-2.4-4.26-4.41-8.8-7.28-12.7-3.54-4.79-9-5.4-12.7-1.84-9.52,9.3-11.87,20.71-8.68,33.23,3.14,12.3,10.08,22.75,17.47,32.88,1.41,1.92,3.24,3.67,4.16,5.8,3,6.94,5.67,14,8.4,21A241.42,241.42,0,0,0,442.11,464c16.26,22.85,36.14,41.47,62.44,52.27,9.9,4.07,20.12,7.47,31,7.66s21.55.59,32.32-1.71A104.88,104.88,0,0,0,594,513.33c18.79-9.64,34.14-23.47,47.18-40a217,217,0,0,0,25.92-41c6.18-13,11.29-26.48,17-39.71,1.17-2.72,2.19-5.8,4.19-7.8,9.59-9.63,16.45-20.76,19-34.12,2.12-11,1.8-21.85-5.74-31.22a7.83,7.83,0,0,0-9-2.8c-4.8,1.36-6.91,5.42-9.2,9.17-2.13,3.5-3.84,7.26-6,11.36-1.27-3.9.55-6.88,1.1-10.07,3.11-17.8,5.76-35.65,5.26-53.82-.08-2.92-1.12-4-4-4.09-10.21-.35-20.45-.6-30.62-1.48C629,266,609,262.86,589.67,256.88c-12.11-3.75-24.29-7.47-36-12.26a230.74,230.74,0,0,1-48.34-27C495,210.16,484.91,202.44,476.26,193a6.71,6.71,0,0,0-5.13-1.57c-10.36,1.34-19.47,5.9-27.94,11.76A104.64,104.64,0,0,0,414.74,233c-3.21,5-7.44,9.45-7.89,15.92a246.59,246.59,0,0,0,2.56,53.26c1.24,8.3,2.79,16.55,4.1,24.85C413.86,329.14,413.84,331.36,414,333.54Z"/></g></svg>