<?xml version="1.0" encoding="utf-8"?>
<!-- Generator: Adobe Illustrator 26.0.1, SVG Export Plug-In . SVG Version: 6.00 Build 0)  -->
<svg version="1.1" id="Layer_1" xmlns="http://www.w3.org/2000/svg" xmlns:xlink="http://www.w3.org/1999/xlink" x="0px" y="0px"
	 viewBox="0 0 1080 1080" style="enable-background:new 0 0 1080 1080;" xml:space="preserve">
<style type="text/css">
	.st0{fill:#FAFAFC;}
	.st1{fill:none;stroke:#000000;stroke-width:3;stroke-miterlimit:10;}
	.st2{fill:#E59900;}
	.st3{fill:#E58A00;}
	.st4{fill:#772E25;}
	.st5{fill:#FCB685;}
	.st6{fill:#36251D;}
	.st7{fill:#342721;}
	.st8{fill:#A5A5A5;}
	.st9{fill:#FEB582;}
	.st10{fill:#DC7C4A;}
	.st11{fill:#D6834D;}
	.st12{fill:#FFFEFF;}
	.st13{fill:#FFFFFF;stroke:#A3A3A3;stroke-width:0.75;stroke-miterlimit:10;}
	.st14{fill:#A3A3A3;}
	.st15{fill:#6C6EAB;}
	.st16{fill:#767FFF;}
	.st17{fill:#575692;}
	.st18{fill:#A7B1FF;}
	.st19{fill:#CED5FF;}
	.st20{fill:#D38C58;}
	.st21{fill:#F9D681;}
	.st22{fill:#46352B;}
	.st23{fill:#FCB683;}
	.st24{fill:#D67B46;}
	.st25{fill:#FFFFFF;}
	.st26{fill:#CA8A5C;}
	.st27{fill:#7272B9;}
	.st28{fill:#FEB67C;}
	.st29{fill:#7272A5;}
	.st30{fill:#E5E8FF;}
	.st31{fill:#C8DBEA;}
	.st32{fill:#DBCDC4;stroke:#000000;stroke-miterlimit:10;}
	.st33{fill:none;stroke:#000000;stroke-width:0.5;stroke-miterlimit:10;}
</style>
<g id="full_draw">
	<path class="st0" d="M1008.3,272.7C1115.6,467.2,867.6,936.8,548,941.2C226.3,945.7-34.9,476.5,69.8,277.8
		c80.5-152.9,378.2-146.5,496.3-144C703.7,136.8,936.1,141.7,1008.3,272.7z"/>
	<line class="st1" x1="31" y1="952" x2="1058.6" y2="952"/>
	<path d="M379.8,951.9c-4.2-0.4-7.6-0.5-9.9-0.4c-5.8,0-12.4,0.6-12.4,0.6l0,0c-2.2-9-5.9-23.2-10.8-40.6
		c-7.3-25.5-11.4-42.2-24.4-77.5c-5.2-14.2-11.5-32.9-17.6-55.2l-89.5-0.8c-1.8,4.4-4.5,10.9-7.5,18.9
		c-8.2,21.9-12.4,38.8-14.7,45.2C182.9,869.8,154,951.9,154,951.9c-3,0.1-6,0.1-9.1,0.1c-3.6,0-7.1,0-10.6-0.1
		c18.6-63.4,37.1-126.8,55.7-190.2c2.3-7.9,9.6-13.3,17.8-13.3l99.9,0.5c8.2,0,15.4,5.5,17.7,13.4L379.8,951.9z"/>
	<path class="st2" d="M107.5,447.2c-1.5-0.1-2.9,0-4.3,0.5c-6.6,2-13.6,2.5-20.3,3.9c-2.5,0.5-6.4,1.3-11.1,2c-1,2.6-2.1,5.4-3,8.4
		c-1.3,4.1-2.4,8.1-3.2,11.8c0,0,0,31.9,3.5,47.9c5.8,31.3,12.4,57.5,18.1,77.5c4.4,15.6,9,31.5,15.3,49.4
		c1.9,5.6,5.8,16.5,13.1,34.6c7.4,18.5,17.9,43.5,32,73.5c31.4,1.6,56.6,3.4,74.1,4.7c15.4,1.2,24.8,2.3,39.9,3
		c24.2,1.2,44,0.7,57.1,0c-1-6.5-1.6-13.2-1.8-19.8c-0.3-10.9,0.6-16.1-3-19.7c-3.9-3.9-10.3-3.2-11.8-3.2
		c-9.5,0.3-27.6-18.8-65-96.1l-91.4-1.2c-9-24.9-16.5-50.2-22.6-76c-4.6-19.8-6.8-29.7-7.5-38.6c-2.5-32,7.2-54.3-3.2-61
		C110.7,448.1,109.1,447.5,107.5,447.2z"/>
	<path class="st3" d="M72.7,453.5c-5.6-2.7-14.9,1-24,4.1c-3.6,1.2-7,2.8-10.3,4.7c-1.6,1.8-3,3.8-4.1,5.9c-2,3.4-3.8,7.8-3.2,11.7
		c0,0,0,31.7,3.4,47.6c5.8,31.1,12.3,57.1,17.9,77c6.2,22.4,13.9,49.5,28,83.4c9.3,22.5,20,44.5,32,65.7l148.9,10.9
		c-27-41.2-47.5-86.3-60.9-133.7l-90.3-1.1c-8.9-24.7-16.3-49.9-22.3-75.4c-4.3-18.4-6.2-27.6-7.4-38.3
		C76.4,479.8,82.4,458.2,72.7,453.5z"/>
	<path class="st4" d="M299.9,950.9c-4.2-0.4-7.6-0.5-9.9-0.4c-5.8,0-12.4,0.6-12.4,0.6l0,0c-2.2-9-5.9-23.2-10.8-40.6
		c-7.3-25.5-11.4-42.2-24.4-77.5c-5.2-14.2-11.5-32.9-17.6-55.2l-89.5-0.8c-1.8,4.4-4.5,10.9-7.5,18.9
		c-8.2,21.9-12.3,38.8-14.7,45.2C102.9,868.8,74,950.9,74,950.9c-3,0.1-6,0.1-9.1,0.1c-3.6,0-7.1,0-10.6-0.1
		C72.8,887.5,91.4,824,110,760.6c2.3-7.9,9.6-13.3,17.8-13.3l99.9,0.5c8.2,0.1,15.4,5.5,17.6,13.4
		C263.6,824.4,281.7,887.6,299.9,950.9z"/>
	
		<rect x="431.6" y="792.2" transform="matrix(0.9362 -0.3515 0.3515 0.9362 -256.3185 210.802)" class="st5" width="41.6" height="38.3"/>
	<path class="st6" d="M473.4,808l34.1,6.6c0,0,8,3.1,14.9,0.2c0,0,9.1-2.9,14.5-3.2c0,0,6.7-2.1,12.3,9.3c0.9,1.7,0.2,3.8-1.6,4.7
		c-0.1,0.1-0.2,0.1-0.3,0.1l-97.9,36.8c-3,1.1-6.3-0.4-7.5-3.3c-4-10.3-11.9-32.1-7-35.4c0,0,8.7,4.4,13.9,3.7
		c1.4,0,2.7-0.2,4.1-0.5c6.6-1.2,12.2-5.6,14.9-11.8c1.1-2.5,1.8-5,4.1-6.5C472.5,808.4,472.9,808.2,473.4,808z"/>
	<rect x="337.1" y="891.1" class="st5" width="41.6" height="34.7"/>
	<path class="st6" d="M378.7,911.1l29.6,17.3c0,0,6.4,5.5,13.9,5.2c0,0,9.6,0.4,14.7,2.1c0,0,6.9,0.4,8.2,12.4
		c0.2,1.8-1.1,3.5-3,3.7c-0.1,0-0.2,0-0.3,0H334.6c-1.8,0-3.3-1.4-3.3-3.2c-0.2-9.2-0.4-34.8,5.8-36.3c0,0,6.6,6.8,11.7,8
		c1.3,0.5,2.7,0.8,4,1c4.2,0.5,8.6,0,12.5-1.7c2-1,3.9-2.3,5.6-3.8c1.9-1.8,3.4-3.9,6.1-4.4C377.7,911.2,378.2,911.1,378.7,911.1z"
		/>
	<path class="st7" d="M235.4,331.4c3.2-9.3,4.8-19,4.9-28.8c0,0-0.6-10.1-3.2-14.6c0,0-1.1-7.3-18.6-10.9c0,0-4.5-7.3-17.8-9
		c0,0-21.9-3.9-33.9,6.9c0,0-10.3,7.9-13.1,15.6c0,0-3.4,8.6-3.4,14.6c0,0,1.7,20.8,4.7,25.9c1.3,4.5,2.8,8.9,4.5,13.2
		c2.8,6.9,6.1,13.6,10,19.9L235.4,331.4z"/>
	<path class="st8" d="M165.9,297.7c20.7,3.6,41.4-3.2,54.2-20.2c-1.4,2.1-3,4.2-4.7,6.1C203.3,297.2,183.4,302.2,165.9,297.7z"/>
	<path class="st8" d="M160.5,292.9c20.7,3.6,41.4-3.2,54.2-20.2c-1.4,2.1-3,4.2-4.7,6.1C197.9,292.4,178,297.4,160.5,292.9
		L160.5,292.9z"/>
	<path class="st8" d="M220.1,278.4c4,8.1,9.8,15.2,16.9,20.8c1,0.8,2.1,1.6,3.1,2.3c-1.2-0.6-2.3-1.2-3.4-1.9
		C229,294.6,223.2,287.1,220.1,278.4L220.1,278.4z"/>
	<path class="st9" d="M170.9,332.8c1.8-2.4,3-5.2,3.5-8.1c0.3-1.4,0.4-2.9,0.3-4.3c-0.4-3-0.7-5.2-0.9-6.5c-0.5-3.5-0.8-4.9-0.2-6.6
		c0.4-1.2,1.2-2.3,2.1-3.2c3.8-1.4,7.8-2.1,11.8-1.9c6.8,0.1,13.6-1,20.1-3.1c4.3-1.5,7.2-3.3,13.1-4.5c1.8-0.4,4.9-0.9,7.1,0.8
		c0.8,0.6,1.4,1.4,1.7,2.3c2.9,6.8,4.7,14,5.3,21.3c0,11.3,1.1,16.9,1,19.1c-0.3,6.3-1.8,38.3-21.6,49.6c-0.7,0.4-1.3,0.7-1.7,0.9
		c-0.5,2.2-0.8,4.4-0.6,6.6c0.1,2,0.5,3.9,1.1,5.8l-9.4,16.3c-5.3-3.8-10.8-7.6-16.4-11.4c-6.7-4.5-13.2-8.9-19.7-13
		c0.6-0.8,1.2-1.7,1.6-2.7c1.3-3,1.8-6.4,1.4-9.7c-1.2-16.8-1-17.8-2.1-23.6c-0.6-2.9-1.1-5.3-1.5-6.9c-1.3,0-6.2,0.1-9.8-3.4
		c-5-4.9-4.9-14.1-0.5-18.1c1.9-1.8,5.9-3.5,8.6-1.6s2.3,6.4,2.2,6.6C167.6,333.5,170,334.5,170.9,332.8z"/>
	<path class="st10" d="M177.9,374.6c0,0,16.3,18.4,34.7,13.9l-0.7,4.7C212,393.3,184.8,396,177.9,374.6z"/>
	<path d="M192.2,326c1.8-5.3,9.4-7.4,13.6-3.8C201,321.6,196.1,322.9,192.2,326z"/>
	<path d="M233,325.3c-3.5-2.2-7.7-2.8-11.6-1.7C224.1,319.6,231.4,320.7,233,325.3z"/>
	<circle cx="227.2" cy="331.4" r="3.8"/>
	<circle cx="200" cy="331.4" r="3.8"/>
	<path d="M215.8,325.3c1.2,5.8,2.7,11.5,4.3,17.2c0.6,2.4,2.2,4,2.2,6.6c-0.1,1.1-1.1,2-2.2,2.1c-3,0.1-6,0-9-0.3
		c1.5-0.3,3-0.5,4.4-0.7l2.2-0.2c0.7-0.1,1.4-0.2,2.1-0.3c0.7-0.2,0.7-0.4,0.8-0.7c0-0.9-1.2-2.8-1.6-3.7c-1.6-3.5-2.1-7.3-2.8-11
		C215.8,331.3,215.6,328.3,215.8,325.3L215.8,325.3z"/>
	<path d="M203.9,357c2.1,3.9,4.8,6.7,8.8,8.2c1.4,0.5,2.7,0.8,4.2,1.1C210.9,368.7,203.5,363.4,203.9,357z"/>
	<path class="st11" d="M162.7,332.2c-5,3-4.2,10.6,1.9,11.4C156.6,346.2,154.4,333,162.7,332.2z"/>
	<path class="st12" d="M160.6,401.8l-7,24.7L205.3,568l35.4,6l10.6-8L229,422.3l-16.1-21.1c0,3.7-1,7.3-3,10.4
		c-1.1,1.6-3.6,5.4-7.1,5.6c-1.6,0-3.1-0.6-4.3-1.6C195.1,413,185.2,408.9,160.6,401.8z"/>
	<path class="st13" d="M169.2,390.1c5.2,3.9,10.4,7.8,15.6,11.8c6,4.6,12,9.2,17.9,13.8c8.9,6.9,6.5-10.9,10.1-14.5
		c0,0,4.5,6.2,5.1,11.6v11.8c0,0-7.1-9.2-8.4-9.9l-4.7,8.4c-1-1.4-2.3-2.6-3.7-3.5c-1.7-1.1-3.6-1.7-5.5-2c-1.5,1.1-3,2.3-4.2,3.7
		c-1.9,2-3.5,4.3-4.8,6.8c-6.8-10.2-15.9-18.7-26.6-24.8c1.5-1.8,3.1-3.9,4.7-6.1C166.5,394.7,168,392.3,169.2,390.1z"/>
	<path class="st14" d="M204.9,423c10.1,50.1,17.4,100.6,21.8,151.5C219.7,524.4,212.3,473.2,204.9,423z"/>
	<rect x="140.9" y="612.3" class="st15" width="80.1" height="14.1"/>
	<path class="st16" d="M221,626.4h-80.1c-0.1-1.1-0.1-2.3-0.2-3.4c15,0.8,30,0.8,45-0.2c12.8-0.8,24.6-2.3,35.4-4.1V626.4z"/>
	<path class="st16" d="M160.3,402.8c-6.4,1.6-12.7,3.6-18.9,6c-10.8,4.2-21,9.6-30.5,16.2c0,0-9.4,8.6-13.7,27.4
		c0,0-5.6,43.3-3.4,69.4c0,0,0,49.7,7.7,65.1c0,0,3.7,23.1,27.1,25.7c0,0,90.8,6.8,129.3-2.2v-42.4c0,0,4.3,2.6,8.6,0.9
		c0,0,12-6,15.4-7.3c0,0,8.1-3,10.7-2.6c0,0-12-78.9-17.6-90c0,0-6.9-25.7-13.3-37.3c-3-3.7-6.4-7-10.1-10
		c-10.2-8.1-22.3-13.3-35.2-15.3c0.2,0.5,0.6,1.3,0.9,2.2c2.1,5.4,3.4,11.1,4,16.9c0.7,5,2.2,13,5.7,26.7c0,0,10.7,99.4,6,116.1
		l-18.4-0.4c0,0-6.4-63.9-8.1-74.1c0,0-6.3-27.9-11.7-36.9C188,436.4,176.2,417.7,160.3,402.8L160.3,402.8z"/>
	<path class="st17" d="M160.1,403.2c3,15.4,5.7,30.9,8.2,46.3c0.1,0.7,0.2,1.4,0.4,2.1c0.4,0.9,1.1,1.2,2,1.6
		c3.7,1.6,8.7,3.9,12.4,5.6c3.4,1.1,5.1,4.6,3.4,7.8c-0.8,1.5-2.7,5.2-3.5,6.6c-0.3,0.5-0.8,1.5-1.1,2c-0.3,0.8-0.1,1.7,0.4,2.4
		c10.2,21.1,20.2,42.4,29.5,64C200.6,521,190,500,179.7,478.9c-0.9-1.4-1-3.1-0.5-4.7c0.2-0.4,0.4-0.9,0.6-1.3
		c0.4-0.7,1.4-2.6,1.7-3.3l2.3-4.4c0.7-1.1,0.3-2.6-0.8-3.3c-0.2-0.1-0.4-0.2-0.6-0.2c-3.9-1.8-9-4.2-12.9-6c-2-0.7-3.5-2.5-3.7-4.6
		C163.7,435.2,161.7,419.2,160.1,403.2L160.1,403.2z"/>
	<path class="st17" d="M216.9,407.4c7.5,13.2,14.5,26.6,21.4,40.1c0.9,1.5,1.1,3.3,0.6,4.9l-0.5,1.2c-0.3,1-1,2-0.6,3.2l1.1,4.1
		c0.4,1.2,0.7,2.5,0.7,3.8c0,0.2,0,0.6,0,0.8c-1.4,23.6-3,48.1-5.7,71.6c0.1-23.6,1.3-48.2,2.7-71.8l0.1-1c-0.1-0.9-0.4-1.8-0.6-2.7
		l-1.1-4.1c-0.4-1.3-0.2-2.8,0.4-4l0.4-1l0.6-1.4c0.2-0.9,0.1-1.8-0.4-2.5c-6.6-13.7-13-27.4-19-41.3L216.9,407.4z"/>
	<path class="st17" d="M257.9,568.1c-21.5,1.5-43.1,2.2-64.6,0.9c-6.3-0.5-12.6-1.4-18.8-2.7c-7.1-1.5-14.1-3.5-20.9-6.1
		c-1.6-29.2-0.7-58.5,2.7-87.6c-1.3,28.8-1.4,57.7,0.2,86.5l-1-1.3c8.9,3.2,18.1,5.6,27.4,7.2c10.5,1.8,21.2,2.1,31.9,2.6
		C229.1,568,243.5,568.1,257.9,568.1L257.9,568.1z"/>
	<path class="st17" d="M254.9,474.7c5.4,30.8,6.4,62.3,3,93.4C257.1,537.1,256.1,505.7,254.9,474.7L254.9,474.7z"/>
	<path class="st18" d="M220.3,614.1c12.4-2.5,25-3.7,37.6-3.6c60.3,0.5,105.1,31,125.7,47.4c0,0,12.9,38.6,9.4,66.6
		c0,0-1.4,106.3-6.1,123.4c0,0-3,42.9-3.4,45s-50.7,1.9-50.7,1.9l-2.3-40.8c-7.1-33.6-11.6-67.7-13.4-102c-0.4-7.4-0.7-14.8-0.8-22
		c-0.3-1.2-0.8-2.3-1.4-3.3c-1.2-1.9-2.9-3.4-4.9-4.4c0,0-29.4-1.7-32.6-1.7l-10.6-27.7c0,0-22.9-58.7-34.3-66.4H221
		C220.8,622.3,220.5,618.2,220.3,614.1z"/>
	<path class="st19" d="M257.9,603.1l108.6-10.6c0,0,23.1,0.9,28.9,5.3c0,0,16.6,7.6,25.1,33.9c2.2,6.9,4.4,13.9,6.6,20.8
		c14.3,45.4,28.1,90.7,41.4,135.7l-42.3,17.1c0,0-29.7-75.1-33.1-80.9c-0.2-6.2-1.7-41.1-6-54.6c-0.5-1.9-1.5-3.6-2.7-5.1
		c-5.5-6.6-16-6.3-21-5.8c-32.5,11.6-63.3,27.5-91.7,47.2c-3.6-11.1-8.8-23.3-14.7-36.7c-8.2-18.9-18.3-38.8-25.6-43.2H221l-0.3-5.6
		l37.2-10.3V603.1z"/>
	<path class="st18" d="M271.6,706.3c1.2-0.3-2.5-16-2.1-21.1c3.4-56.1,78.7-88,85.8-90.9c-31.1,4-63.6,9.3-97.4,16.3
		c-12.6,2.6-24.9,5.3-36.9,8.1c-0.9,2.8-1.6,6.4,0,7.7s3.9-0.7,7.3-0.4c1,0.1,4.1,0.5,9.2,6.8c5.6,6.8,5.9,11.4,11.8,22.3
		c0.8,1.6,0.8,1.4,1.7,3.1c1.9,3.5,4.8,9.1,7.8,15.9c1.9,4.3,3.1,7.5,5.1,12.7C269.4,700.8,270.9,706.4,271.6,706.3z"/>
	<path class="st9" d="M351.1,581.5c0,0,22,1,23.4,1.3c0,0,7.3,2.1,9.1,4.6c0,0,3.7,5.7,2.6,9.9c0,0-0.9,8-4.9,11c0,0-2.9,2.7-5,0
		c0,0-4.6,4.2-6.6-1c0,0-4.9,4.1-7.2-1.1c0,0-4.5,4-6.2-1c0,0-0.2-9.2-1.2-10.9c0,0-8.7,0.8-10.9,0
		C344.3,594.3,349.5,583,351.1,581.5z"/>
	<path class="st20" d="M376.4,608.3c1.2-5.6,2.4-11.1,3.5-16.8C380.2,597.3,379,603.1,376.4,608.3z"/>
	<path class="st20" d="M369.5,607.3c0.4-5.8,0.6-11.3,0.8-17.1C371.5,595.8,371.2,601.7,369.5,607.3z"/>
	<path class="st20" d="M362.4,606.6c0.4-5.8,0.6-11.3,0.8-17.1C364.4,595.2,364.1,601.1,362.4,606.6z"/>
	<path class="st21" d="M338.6,607.5l-71.4,1.7l49.9-94.1l68.4,0.4L338.6,607.5z"/>
	<path d="M335.4,516.7h37.3c0.3-0.8,0.2-1.8-0.1-2.6c-0.9-1.8-3.8-2.7-6.9-1.7c0-1-0.3-1.9-0.8-2.7c-1.3-1.8-3.6-1.8-11.4-1.7
		c-7.1,0-9.3,0-10.3,1.6c-0.5,0.9-0.6,2-0.4,3c-3.1-1.3-6.1-0.5-7.1,1.2C335.1,514.7,335,515.8,335.4,516.7z"/>
	<path class="st9" d="M257.9,568.1c0.9,0.3,1.8,0.5,2.7,0.7c1.8,0.3,3.6,0.4,5.4,0.4c0,0,21.1-10.7,25.4-10c0.7-0.2,1.4,0,2,0.4
		c0.8,0.8,1,2.1,0.3,3.1c-2.2,3-4.4,6.1-6.6,9.2c1.5,0.1,3.8,0.2,6.5,0.2c3.4,0.1,6.4,0.2,8.7,0c4.5-0.3,9-1.4,13.1-3.3
		c0.8,1.2,1.1,2.7,0.8,4.2c-0.4,1.2-1.2,1.2-1.8,2.5c-1.2,2.3,0.5,4.2-0.7,6c-0.6,0.9-1.5,1.5-2.6,1.7c0,0,1.2,6.2-7.1,8.7
		c0,0-0.1,6-9,7.7l-37.1,3.6C257.8,603.1,256,575.1,257.9,568.1z"/>
	<path class="st20" d="M291.7,578.8c7.6-0.4,15.2-1.5,22.5-3.5C307.2,578.6,299.4,579.9,291.7,578.8z"/>
	<path class="st20" d="M289.5,586.2c7.6-0.4,15.2-1.5,22.5-3.5C305,586,297.2,587.2,289.5,586.2L289.5,586.2z"/>
	<path class="st20" d="M284,594.3c7.6-0.4,15.2-1.5,22.5-3.5C299.5,594.1,291.7,595.3,284,594.3z"/>
	<path class="st2" d="M918.6,441.2c5-5.1,14.6,3.3,36.2,6.8c16.5,2.6,21.6-0.6,46.8,3c5.2,0.7,9.5,1.5,12.2,2
		c1.2,2.6,2.3,5.4,3.3,8.4c1.5,4.1,2.6,8.1,3.5,11.8c0,0,0,31.9-3.8,47.9c-6.5,31.3-13.7,57.5-19.9,77.5
		c-4.8,15.6-9.9,31.5-16.8,49.4c-2.1,5.6-6.4,16.5-14.4,34.6c-8.1,18.5-19.7,43.5-35.2,73.5c-34.5,1.6-62.4,3.3-81.6,4.7
		c-17,1.2-27.4,2.3-43.9,3c-26.7,1.2-48.5,0.7-62.8,0.1c1.1-6.5,1.8-13.1,2-19.8c0.4-10.9-0.6-16.1,3.3-19.7
		c4.3-3.9,11.3-3.2,13-3.2c21.1,0.5,25.1-39.1,58-71.4c6.4-6.4,13.6-11.9,21.5-16.3c2.5-1.4,10-5.3,26.6-9.9
		c13.2-3.6,26.6-6.1,40.2-7.4c1.1-5,9.4-44.7,8.2-63.1c-0.5-8.2-1.2-13.8-1.2-13.8c-1.6-14.1-2.8-14.4-2.2-18.2
		c1.8-10.4,11.4-9,16.6-21.6c4.3-10.7,1.5-21.7,0.7-24.6c-0.9-3.4-2.3-6.6-4-9.6c-3.4-5.6-6.1-6.1-7.4-10.2
		C916.1,451.4,915.3,444.5,918.6,441.2z"/>
	<path d="M674,950.9c4.6-0.2,8.4-0.2,11.3-0.1c5.6,0.1,11,0.3,13.7,0.6l0,0c2.5-9,6.5-23.2,11.9-40.6c8-25.5,12.6-42.2,26.8-77.5
		c5.7-14.2,12.7-32.8,19.4-55.2l98.5-0.8c2,4.4,4.9,10.9,8.2,18.9c9,21.9,13.6,38.8,16.2,45.2c11.2,27.8,43.1,109.9,43.1,109.9
		c3.3,0.1,6.6,0.1,10.1,0.1c4,0,7.9,0,11.6-0.1L883.6,761c-2.5-7.9-10.6-13.3-19.6-13.3l-110.1,0.5c-6.9,3.8-13.4,8.3-19.5,13.4
		C681.8,807,675,929.7,674,950.9z"/>
	<path d="M775.3,386c-0.9,0.3-14.3-18-11.7-39.1c0,0-1.7-68.9,30-56.6c0,0,12.9-10.3,24-8.6c0,0,24-2.9,47.4,23.7
		c0,0,17.7,38.3,16.9,84c0,0,23.7,13.4,27.7,22.3c0,0,13.1,5.7,7.7,43.4c0,0,33.7,33.4-6.9,67.7S785.6,426,785.6,426l-4.6-28.3
		L775.3,386z"/>
	<path d="M864.1,305.1c17.7,21.1,25.5,48.8,21.3,76.1c-0.6,3.8-1.4,7.6-2.5,11.3C890.2,362.1,883.2,330,864.1,305.1z"/>
	<path class="st22" d="M796.1,299.7c3.3-1.4,6.8-2.4,10.4-2.7c3.6-0.4,7.3,0,10.8,1c3.5,1.1,6.8,2.7,9.8,4.9
		c2.9,2.2,5.6,4.7,7.8,7.6c2.3,2.8,4.2,5.9,5.9,9.2c1.7,3.3,2.6,6.8,4.1,9.9c0.8,1.6,1.7,3.1,2.7,4.5c1,1.4,2.1,2.8,3.3,4.1
		c2.4,2.7,5,5.1,7.9,7.1c-6.3-3.6-11.6-8.8-15.2-15.1c-0.8-1.6-1.6-3.3-2.2-5c-0.6-1.6-1.3-3.2-2.2-4.8c-1.6-3.1-3.5-6.1-5.7-8.8
		c-2.2-2.7-4.6-5.2-7.4-7.3c-2.7-2.1-5.8-3.8-9.1-5C810.3,297.2,802.9,297.6,796.1,299.7z"/>
	<path class="st22" d="M845.2,380.9c6.2,16.1,17,30.4,31.5,39.8c8.7,5.6,18.4,9.5,28.6,11.5c-7-0.6-13.8-2.3-20.3-5.1
		C865.6,419,850.5,401.3,845.2,380.9L845.2,380.9z"/>
	<path class="st22" d="M800.5,293.1c14.5-11.1,34-10.7,48.5,0.3c7.1,4.7,14.5,11.4,15.3,20.5c0.6,8.5,3.4,16.7,8.1,23.9
		c-5.4-6.8-8.8-15-9.7-23.7c-1.1-8.6-8-14.4-14.9-19C834.1,284.4,815.1,283.7,800.5,293.1L800.5,293.1z"/>
	<path class="st22" d="M788.5,300.9c-2.1,4.8-4.9,9.2-8.3,13.1c-0.9,1-1.8,1.9-2.7,2.8c-0.9,1-2,1.8-3.2,2.5c-1,0.6-2,1.3-2.9,2.2
		c-0.8,0.8-1.4,1.8-1.8,2.9c-0.7,2.3-0.8,4.8-0.5,7.2c0.3,2.6,0.5,5.2,0.5,7.8c0,5.2-0.9,10.4-2.4,15.3c0.8-5.1,1.1-10.2,0.9-15.3
		c-0.1-2.5-0.4-5-0.8-7.6c-0.5-2.7-0.3-5.5,0.5-8.1c0.5-1.3,1.2-2.6,2.2-3.6c1-0.9,2.1-1.7,3.3-2.4c1.1-0.6,2.1-1.3,3-2.2
		c0.9-0.9,1.8-1.7,2.8-2.6C782.7,309.2,785.8,305.2,788.5,300.9z"/>
	<path class="st18" d="M794.1,425.1c0,0-22,1.4-32.8,13.4c0,0-13.4,24.3-17.7,52.3c7.6,4.6,16.2,7.2,25,7.5
		c2.9,12.8,8.5,24.9,16.4,35.3c0,0,7.1,72,2.6,90l-2,16.6c0,0,109.1,1.1,117.7-4.3v-20.6l-64-196.9L794.1,425.1z"/>
	<path class="st9" d="M865.5,499.9c0,0,15.9,69.6,13.7,76c0,0-4.1,17-6.8,18.7c0,0-57.2,27.4-78.1,25.7c0,0-18-0.4-21.4,0.1
		c0,0-6,1.3-5.4,3.1s1.7,2.9,4.9,2.9c-1.4,0.5-2.7,1.2-4,2c-4.2,2.8-7.3,6.8-9,11.5c14,0.6,28.3,1,43.1,1.2c21.8,0.2,42.8-0.1,63-1
		c5.9-1.9,11.7-4.3,17.2-7.2c8.7-4.5,16.8-10,24.1-16.5c0,0,10.5-13.7,9.8-30.4c0,0-1.6-72.8-12.7-96.5
		C903.8,489.4,867.4,496.1,865.5,499.9z"/>
	<path class="st18" d="M838.6,418.7c4.8,0.1,9.6,0.9,14.2,2.2c7.6,2.2,14.7,5.9,20.8,10.9c0,0,14.2,12,18.9,20.1
		c0,0,10.7,30,10.7,33.9c0,0,3.8,5.1,0,6.4c0,0-37.3,10.3-40.3,10.7l-6-2.6L838.6,418.7z"/>
	<path class="st23" d="M809,318.9c-1.2-1-3.8-4.1-7.5-4.1s-5.5,3-10,4.9c-2.7,1.1-6.8,2-12.7,0.6c-1.3,2-2.5,4.1-3.3,6.4
		c-2,4.9-2.6,10.3-1.8,15.6c0,0-1.3,21.1-0.3,30.3c0,0,0.9,12.9,3.8,16.6c0,0,7.1,13.7,15.1,18.6c0,0,4.3,0.3,1.4,19.4
		c0,0,13.1,30.6,44.9-7.7v-34.9c1.4-3.9,2-8.1,2-12.3c3.6-0.7,6.8-2.7,9-5.6c2.6-3.6,3.5-8.1,2.4-12.4L809,318.9z"/>
	<path class="st24" d="M820.4,399.4c-2.3,2-4.9,3.8-7.7,5.1c-6.1,3-13,4.3-19.8,3.7c0.5,0.7,0.8,1.5,1,2.4c0.2,0.7,0.3,1.4,0.4,2.1
		c3.2-0.4,6.3-1.2,9.4-2.3C810,408,815.8,404.3,820.4,399.4z"/>
	<path class="st24" d="M840.9,365.9c4.7,0.3,8.5-3,8-7.8c-0.1-1.5-0.6-2.9-1.4-4.2c0.5,0.6,1,1.2,1.4,1.9
		C851.9,361.5,847.2,367.8,840.9,365.9L840.9,365.9z"/>
	<path d="M775.9,348.4c3.8,0.2,7.4-1.5,9.6-4.5c-1.2,3.8-5.2,5.9-9,4.7C776.3,348.5,776.1,348.5,775.9,348.4z"/>
	<path d="M816.5,342.7c-3.1,2.5-7.6,2.1-10.2-1c-0.1-0.2-0.2-0.3-0.4-0.5C809,343.4,813,344,816.5,342.7L816.5,342.7z"/>
	<path d="M793,356.5c0.8,2.1,0.8,4.3,0,6.4c-1.5,2.9-3.7,5.2-5,8.1c-1.2,2.3,1.5,2.9,3.3,2.9c1.1,0.1,2.1,0,3.2-0.1
		c-2.1,0.5-4.3,1-6.5,0.1c-3.9-2,3.1-9,4.3-11.3C793.1,360.7,793.4,358.6,793,356.5z"/>
	<path class="st25" d="M788.5,383.4l15.3-2.4c0.3,1.7,0,3.4-0.7,5c-0.9,2-2.6,3.5-4.7,4.2c-1.8,0.7-3.7,0.6-5.5-0.1
		C790.3,388.9,788.6,386.3,788.5,383.4z"/>
	<circle cx="811.2" cy="351.1" r="3.4"/>
	<circle cx="783.2" cy="354.6" r="3.4"/>
	<path class="st16" d="M766.5,494.2c-0.5-6.2,0.9-12.4,4-17.7C768.7,482.3,767.4,488.2,766.5,494.2z"/>
	<path class="st16" d="M852.3,477c3.1,4.1,5.3,8.7,6.5,13.6c1.1,5.2,2.9,9.5,8.3,11.2c-5.8-0.8-8.3-5.8-9.3-11
		C856.6,486,854.7,481.3,852.3,477L852.3,477z"/>
	<path class="st9" d="M748,493.1c0,0-11,52-19.9,60.3c0,0-2,2-6.3,0c0,0-59.4-44.9-70.3-68.9c0,0-16.6-26.6-24.9-32.3c0,0-3.7-2-6,0
		c-0.7,1.1-0.7,2.6,0,3.7c0,0,10.3,10.6,10.3,12.9c0,0,1.1,2.9-0.9,2.9c0,0-6.6,2-18.6-2.9l-21.7-8.1c0,0-7.2,2.1,0,6.4
		c-1.1,0-2.3-0.1-3.4-0.3c-3.4-0.5-5-1.4-6.4-0.5c-0.2,0.1-1,0.6-1.1,1.4c-0.3,2.4,7.1,5,8.4,5.4c-0.3,0-2.3,0.1-3,1.4
		c-0.2,0.6-0.3,1.2-0.1,1.9c0.8,3.2,10.4,5.9,11.4,6.1c-3-0.3-5.3,0.2-5.6,1.2c-0.2,0.6,0.3,1.3,0.8,2.1c0.7,1,1.7,1.9,2.8,2.4
		c0,0,12.6,7.1,16.9,8.3c0,0,17.7,6.3,24.6,5.3c0,0,43.4,69.3,62.9,84.4c0,0,19.1,14.3,26,16c0,0,6,2.3,10.3,0c0,0,20-8.3,24.9-17.2
		c0,0,21.9-27.6,24.4-52.9l-16.9-38.8L748,493.1z"/>
	<path class="st20" d="M589.5,467.3c6.7,2.4,13.3,4.6,20.2,6.6C602.6,473.2,595.7,471,589.5,467.3z"/>
	<path class="st20" d="M587.9,473.1c6.7,2.4,13.3,4.6,20.1,6.6C600.9,479,594,476.8,587.9,473.1z"/>
	<path class="st20" d="M594.6,482.8c6.7,2.5,13.3,4.6,20.1,6.6C607.6,488.8,600.7,486.5,594.6,482.8z"/>
	<path class="st16" d="M785,533.7c6.1,4.1,13.3,6.1,20.6,5.7C798.2,541.2,790.4,539,785,533.7z"/>
	<path class="st26" d="M661.6,905.3c0.2,2.9-0.6,5.8-2.3,8.1c-1.3,1.8-3,3.1-5,4c0,0-17.4,9-19.7,9.6c-5.9,2.7-11.8,5.4-17.8,8.1
		c-6.7,3.1-13.2,6.2-19.8,9.2l73.9-5.7l18.9-10.1v-21.9L661.6,905.3z"/>
	<path class="st27" d="M826.6,644.7c-14.8,26.4-25.9,54.8-33,84.2c-21.4-3.7-43.3-2.4-64.1,3.8c-16.9,60.8-33.8,121.6-50.7,182.4
		l-19.4-1.7c-0.6-11.3-1.2-28.1-1.2-48.6c0.1-22.3,0.9-24.9,1.2-43.4c0.9-60.3,0.6-108.6,0.6-108.6c0-4.9-0.1-14.3,5.1-24
		c1.8-3.4,6.7-11.3,24.6-21.7c13.7-7.9,28.5-13.7,44-17.1C764,642.9,795.5,641.1,826.6,644.7z"/>
	<path class="st28" d="M673.6,904c-0.2,2-0.8,3.9-1.7,5.7c-1.3,2.6-3.2,4.8-5.6,6.4c0,0-17.4,9-19.7,9.6c-5.8,2.7-11.7,5.4-17.8,8.1
		c-7.6,3.4-15.1,6.6-22.5,9.6l76.7-6l18.9-10.1v-21.9L673.6,904z"/>
	<path class="st29" d="M878.9,638.7c-12.2,31.4-27.9,61.4-46.8,89.3c-14.1,0.4-28.6,0.6-43.6,0.5c-10.9-0.1-21.6-0.3-32.1-0.8
		c-16.8,60.8-33.7,121.7-50.5,182.5l-38.4,1.1c5.3-34,8.2-68.3,8.6-102.7c1.1-41,5.6-81.8,13.4-122.1c0.9-4.6,2.4-9,4.6-13.1
		c7.9-14.8,21.9-21.4,30-25.3c11.5-5.3,24-8.2,36.7-8.4C811,637.6,866.7,638.5,878.9,638.7z"/>
	<path class="st6" d="M701.9,924.3l1.7,18.2c0,0-0.2,7-3.4,8.5H588.7c0.3-3.9,3.2-7,7.1-7.4l87.2-7.8L701.9,924.3z"/>
	<path class="st3" d="M1012.7,452.9c6.1-2.7,16.4,1,26.4,4.1c3.9,1.2,7.7,2.8,11.3,4.7c1.7,1.8,3.2,3.8,4.5,5.9
		c2.2,3.4,4.2,7.8,3.5,11.7c0,0,0,31.7-3.8,47.6c-6.4,31.1-13.6,57.1-19.7,77c-6.9,22.4-15.3,49.5-30.8,83.4
		c-10.3,22.6-22.1,44.6-35.2,65.8l-164.2-5c12.9-9.5,23.9-21.5,32.3-35.1c13.1-21.5,16.5-32.3,24.1-51.7
		c7.4-18.8,25.4-31.2,45.5-31.5l64.8-0.7c9.8-24.6,18-49.8,24.6-75.4c4.7-18.4,6.9-27.6,8.2-38.3
		C1008.5,479.2,1001.9,457.6,1012.7,452.9z"/>
	<path class="st4" d="M762.5,950.2c4.6-0.4,8.4-0.5,10.9-0.4c6.4,0,13.7,0.6,13.7,0.6l0,0c2.5-9,6.5-23.2,11.9-40.6
		c8-25.5,12.6-42.2,26.8-77.5c5.7-14.2,12.7-32.8,19.4-55.2l98.5-0.8c2,4.4,4.9,10.9,8.2,18.9c9,21.9,13.6,38.8,16.2,45.2
		c11.2,27.8,43.1,109.9,43.1,109.9c3.3,0.1,6.6,0.1,10.1,0.1c4,0,7.9,0,11.6-0.1L971.6,760c-2.5-7.9-10.6-13.3-19.6-13.3l-110.1,0.5
		c-9,0-17,5.5-19.5,13.4L762.5,950.2z"/>
	<path d="M801.8,308.8c-2,12.5,4.5,25.6,16.4,30.4c3.9,1.6,8,2.4,12.2,2.5c-4.2,0.4-8.5-0.2-12.4-1.7
		C805.6,335.3,798.7,321.4,801.8,308.8L801.8,308.8z"/>
	<path d="M801.1,305.1c-1,12.6,6.5,25.2,18.8,29c4,1.3,8.2,1.8,12.3,1.5c-4.2,0.7-8.5,0.4-12.5-0.8
		C806.9,331.4,798.9,318,801.1,305.1L801.1,305.1z"/>
	<path class="st30" d="M712.8,321.4L712.8,321.4c9.5-6.9,15.1-18,15.1-29.7v-61.5c0-7.3-5.9-13.1-13.1-13.1h-107
		c-7.3,0-13.2,5.9-13.2,13.1v0v85.2c0,7.3,5.9,13.1,13.2,13.1l0,0h68.7l-0.7,0.4c0,0,28,26.1,57.9,24.2
		C733.6,353,710.9,337.7,712.8,321.4z"/>
	<path class="st30" d="M281.4,291.9L281.4,291.9c-9.5-6.9-15.1-18-15.1-29.7v-61.5c0-7.3,5.9-13.1,13.1-13.1h107
		c7.3,0,13.1,5.9,13.1,13.1v85.2c0,7.3-5.9,13.1-13.2,13.1h-68.7l0.7,0.4c0,0-28,26.1-57.9,24.2
		C260.6,323.6,283.3,308.3,281.4,291.9z"/>
	<rect x="312" y="340.4" class="st31" width="198.7" height="12.7"/>
	<rect x="312" y="433.7" class="st31" width="198.7" height="12.7"/>
	<rect x="399.3" y="353.1" class="st32" width="15" height="79.6"/>
	<rect x="361.1" y="353.1" class="st32" width="15" height="79.6"/>
	<rect x="322.6" y="353.4" class="st32" width="15" height="79.6"/>
	<rect x="428.5" y="379" class="st32" width="85.8" height="14.7"/>
	<rect x="421.3" y="393.6" class="st32" width="85.8" height="14.7"/>
	<rect x="428.5" y="408.3" class="st32" width="85.8" height="14.7"/>
	<rect x="421.3" y="418.3" class="st32" width="85.8" height="14.7"/>
	<rect x="431.6" y="381.1" class="st32" width="79.1" height="13.5"/>
	<rect x="424.9" y="394.6" class="st32" width="79.1" height="13.5"/>
	<rect x="431.6" y="408.1" class="st32" width="79.1" height="13.5"/>
	<rect x="424.9" y="417.3" class="st32" width="79.1" height="13.5"/>
	<rect x="431.6" y="489.2" class="st32" width="92.2" height="103.4"/>
	<rect x="437.9" y="496.2" class="st32" width="79.7" height="89.3"/>
	<line class="st33" x1="446.9" y1="518.4" x2="497.4" y2="518.4"/>
	<line class="st33" x1="457.6" y1="528.7" x2="508.1" y2="528.7"/>
	<line class="st33" x1="443.1" y1="544.6" x2="493.7" y2="544.6"/>
	<line class="st33" x1="477.2" y1="564.3" x2="510.2" y2="564.3"/>
	<line class="st33" x1="477.2" y1="569" x2="499.6" y2="569"/>
	<circle class="st25" cx="294.6" cy="238.1" r="10.4"/>
	<circle class="st25" cx="334.9" cy="238.1" r="10.4"/>
	<circle class="st25" cx="373.9" cy="238.1" r="10.4"/>
	<circle class="st25" cx="621" cy="268.4" r="10.8"/>
	<circle class="st25" cx="662.8" cy="268.4" r="10.8"/>
	<circle class="st25" cx="703.1" cy="268.4" r="10.8"/>
</g>
</svg>
