<?xml version="1.0" encoding="utf-8"?>
<!-- Generator: Adobe Illustrator 26.0.1, SVG Export Plug-In . SVG Version: 6.00 Build 0)  -->
<svg version="1.1" id="Layer_1" xmlns="http://www.w3.org/2000/svg" xmlns:xlink="http://www.w3.org/1999/xlink" x="0px" y="0px"
	 viewBox="0 0 512 512" style="enable-background:new 0 0 512 512;" xml:space="preserve">
<style type="text/css">
	.st0{fill:#555555;}
</style>
<path class="st0" d="M298.2,406.8c0,6.2-3.7,11.8-9.3,14.3s-12.3,1.5-16.8-2.7l-52.1-46.9c-3.3-3-5.1-7.2-5.1-11.6s1.9-8.7,5.1-11.6
	l52.1-46.9c4.6-4.1,11.2-5.1,16.8-2.7c5.6,2.5,9.3,8.1,9.3,14.3V339h10.4c23,0,41.7-18.7,41.7-41.7V188.6
	c-18.4-8-31.3-26.4-31.3-47.8c0-28.8,23.3-52.1,52.1-52.1s52.1,23.3,52.1,52.1c0,21.4-12.8,39.8-31.3,47.8v108.7
	c0,46.1-37.4,83.4-83.4,83.4h-10.4V406.8z M386.8,140.8c0-8.7-7-15.6-15.6-15.6s-15.6,7-15.6,15.6s7,15.6,15.6,15.6
	S386.8,149.5,386.8,140.8z M214.7,104.3c0-6.2,3.7-11.8,9.3-14.3c5.6-2.5,12.3-1.5,16.8,2.7l52.1,46.9c3.3,3,5.1,7.2,5.1,11.6
	s-1.9,8.7-5.1,11.6l-52.1,46.9c-4.6,4.1-11.2,5.1-16.8,2.7c-5.6-2.5-9.3-8.1-9.3-14.3v-26.1h-10.4c-23,0-41.7,18.7-41.7,41.7v108.7
	c18.4,8,31.3,26.4,31.3,47.8c0,28.8-23.3,52.1-52.1,52.1s-52.1-23.3-52.1-52.1c0-21.4,12.8-39.8,31.3-47.8V213.8
	c0-46.1,37.4-83.4,83.4-83.4h10.4V104.3z M126.1,370.3c0,8.7,7,15.6,15.6,15.6s15.6-7,15.6-15.6s-7-15.6-15.6-15.6
	S126.1,361.6,126.1,370.3z"/>
</svg>
