<?xml version="1.0" standalone="no"?>
<!DOCTYPE svg PUBLIC "-//W3C//DTD SVG 20010904//EN"
 "http://www.w3.org/TR/2001/REC-SVG-20010904/DTD/svg10.dtd">
<svg version="1.0" xmlns="http://www.w3.org/2000/svg"
 width="628.000000pt" height="120.000000pt" viewBox="0 0 628.000000 120.000000"
 preserveAspectRatio="xMidYMid meet">

<g transform="translate(0.000000,120.000000) scale(0.100000,-0.100000)"
fill="#000000" stroke="none">
<path d="M415 1189 c-124 -25 -268 -126 -330 -234 -120 -204 -87 -457 81 -622
65 -64 153 -113 234 -132 94 -22 225 -9 316 30 l43 18 102 -125 c57 -68 106
-124 109 -124 3 0 27 19 53 42 l48 43 -67 80 c-36 44 -82 99 -101 122 l-34 41
45 61 c75 103 91 154 91 306 0 129 0 130 -37 208 -61 127 -166 223 -294 267
-70 25 -189 33 -259 19z m195 -85 c221 -52 362 -271 316 -491 -19 -91 -46
-144 -108 -210 -85 -89 -185 -133 -304 -133 -307 0 -510 322 -380 605 34 75
115 159 190 195 101 50 180 59 286 34z"/>
<path d="M382 1060 c-153 -55 -252 -196 -252 -359 l0 -70 128 -3 127 -3 3 -77
c3 -93 -4 -97 -64 -33 -41 45 -42 45 -108 45 l-66 0 24 -47 c51 -101 173 -186
285 -200 l51 -6 0 227 0 226 -125 0 -125 0 15 38 c18 42 94 124 108 115 5 -3
7 -23 5 -44 l-4 -39 63 0 63 0 0 125 0 125 -37 0 c-21 -1 -62 -9 -91 -20z"/>
<path d="M650 695 c0 -212 1 -225 18 -216 47 25 96 109 107 183 12 82 -30 185
-98 239 l-27 20 0 -226z"/>
<path d="M955 1180 c-3 -5 1 -10 9 -10 12 0 16 -11 16 -50 0 -27 5 -50 10 -50
6 0 10 23 10 50 0 38 4 50 15 50 8 0 15 5 15 10 0 6 -15 10 -34 10 -19 0 -38
-4 -41 -10z"/>
<path d="M1040 1131 c0 -33 5 -63 10 -66 6 -4 10 11 11 37 l0 43 15 -39 c8
-22 16 -41 18 -43 2 -3 11 15 19 39 l15 43 1 -37 c2 -63 21 -42 21 22 0 73
-23 84 -40 20 -6 -22 -13 -40 -15 -40 -2 0 -9 18 -15 40 -17 64 -40 53 -40
-19z"/>
<path d="M1435 1001 c-81 -21 -115 -62 -115 -138 0 -90 39 -125 174 -159 82
-21 116 -45 116 -85 0 -37 -48 -69 -103 -69 -42 0 -77 28 -109 88 -30 57 -88
39 -88 -28 0 -48 46 -103 105 -126 66 -25 181 -16 233 19 99 65 95 209 -8 262
-14 7 -61 22 -105 34 -83 23 -115 43 -115 71 0 44 90 76 134 47 13 -9 34 -32
46 -52 19 -31 27 -36 53 -33 70 7 53 104 -24 148 -44 24 -141 35 -194 21z"/>
<path d="M2186 994 c-14 -13 -16 -50 -16 -250 0 -143 4 -243 10 -255 12 -22
62 -26 78 -6 5 6 12 65 14 130 5 109 8 121 29 142 35 34 62 39 90 16 23 -18
24 -26 28 -148 1 -70 8 -134 13 -140 16 -20 66 -16 78 6 5 11 10 76 10 146 0
140 -11 182 -55 211 -39 26 -113 23 -158 -5 l-37 -23 0 84 c0 52 -5 89 -12 96
-17 17 -54 15 -72 -4z"/>
<path d="M3446 994 c-14 -13 -16 -50 -16 -250 0 -143 4 -243 10 -255 12 -22
59 -26 78 -7 9 9 12 79 12 254 0 207 -2 245 -16 258 -8 9 -24 16 -34 16 -10 0
-26 -7 -34 -16z"/>
<path d="M4719 993 c-11 -12 -15 -69 -17 -245 -3 -252 2 -278 53 -278 33 0 55
36 55 90 0 35 5 52 23 68 l23 21 33 -57 c55 -92 80 -122 105 -122 28 0 46 18
46 45 0 12 -25 60 -55 109 -30 48 -55 90 -55 94 0 4 18 24 40 45 44 41 53 80
21 97 -32 17 -40 13 -112 -62 l-69 -73 0 120 c0 93 -4 126 -16 143 -18 26 -56
29 -75 5z"/>
<path d="M5106 988 c-14 -19 -16 -58 -16 -253 0 -255 3 -269 55 -263 44 5 55
36 55 159 0 97 2 107 23 126 34 32 61 36 88 14 23 -18 24 -26 27 -148 2 -70 8
-134 14 -140 16 -20 66 -16 78 6 5 11 10 80 10 153 0 116 -3 137 -20 166 -38
63 -135 78 -195 30 l-25 -19 0 68 c0 37 -6 79 -13 93 -17 34 -60 39 -81 8z"/>
<path d="M3796 984 c-14 -13 -16 -50 -16 -244 0 -194 2 -231 16 -244 12 -13
39 -16 132 -16 139 0 177 9 221 52 51 50 64 84 69 181 6 114 -9 168 -62 223
-52 53 -91 64 -233 64 -88 0 -115 -3 -127 -16z m244 -87 c47 -24 70 -73 70
-148 0 -85 -22 -144 -61 -164 -16 -9 -56 -15 -94 -15 l-65 0 0 170 0 170 63 0
c34 0 73 -6 87 -13z"/>
<path d="M1925 865 c-5 -2 -22 -6 -37 -9 -39 -9 -88 -54 -109 -101 -34 -75
-16 -190 37 -237 74 -66 212 -62 281 7 36 36 43 74 17 99 -23 24 -35 20 -80
-29 -31 -34 -48 -45 -71 -45 -68 0 -115 80 -93 158 13 50 40 74 86 75 31 1 42
-5 69 -36 37 -42 77 -50 95 -17 16 30 -12 82 -58 107 -35 20 -115 37 -137 28z"/>
<path d="M2700 859 c-86 -26 -129 -91 -130 -194 0 -112 65 -185 170 -193 107
-8 178 36 209 127 31 93 -9 205 -89 246 -37 19 -118 26 -160 14z m94 -79 c14
-5 32 -21 42 -35 33 -50 13 -172 -31 -189 -9 -3 -30 -6 -46 -6 -87 0 -121 153
-48 214 33 28 45 31 83 16z"/>
<path d="M3124 861 c-84 -21 -134 -93 -134 -190 0 -71 12 -106 48 -145 37 -39
81 -56 145 -56 118 0 191 76 191 200 0 85 -31 142 -95 175 -34 18 -115 26
-155 16z m90 -81 c59 -22 77 -143 30 -199 -34 -40 -89 -43 -123 -7 -47 50 -36
172 17 201 32 17 43 18 76 5z"/>
<path d="M4405 861 c-77 -19 -124 -79 -132 -170 -9 -96 32 -177 104 -207 39
-17 130 -18 170 -3 44 16 83 59 83 90 0 44 -31 46 -85 4 -51 -38 -80 -43 -124
-20 -23 11 -51 57 -51 81 0 2 51 4 113 4 129 0 157 11 157 61 0 113 -113 189
-235 160z m103 -88 c12 -10 24 -30 28 -45 l6 -28 -81 0 c-72 0 -81 2 -81 19 0
10 9 30 21 45 25 31 76 35 107 9z"/>
<path d="M5618 856 c-60 -22 -84 -42 -107 -89 -36 -74 -23 -184 27 -240 51
-56 160 -73 239 -38 107 49 137 215 56 312 -14 16 -38 36 -53 44 -42 22 -120
27 -162 11z m115 -87 c52 -40 56 -150 6 -200 -23 -23 -76 -25 -106 -4 -54 38
-55 155 -2 200 37 30 68 32 102 4z"/>
<path d="M2644 361 c-57 -25 -73 -117 -30 -168 35 -41 117 -41 152 0 32 38 33
105 1 142 -24 29 -86 42 -123 26z m74 -53 c7 -7 12 -26 12 -43 0 -36 -15 -55
-46 -55 -23 0 -34 17 -34 55 0 13 3 30 6 39 7 19 45 21 62 4z"/>
<path d="M4370 358 c-28 -15 -50 -52 -50 -86 0 -41 28 -92 57 -103 57 -22 145
16 130 55 -8 20 -46 21 -53 1 -7 -18 -45 -20 -62 -3 -15 15 -16 53 -2 79 11
20 54 26 65 9 9 -15 55 -12 55 3 0 41 -92 70 -140 45z"/>
<path d="M5608 355 c-37 -21 -53 -79 -36 -131 11 -32 20 -41 54 -53 77 -27
134 7 141 85 4 43 2 55 -19 78 -29 35 -98 45 -140 21z m92 -54 c25 -48 3 -96
-42 -89 -52 7 -46 108 6 108 15 0 30 -8 36 -19z"/>
<path d="M1380 265 l0 -95 70 0 c91 0 110 16 110 95 0 79 -19 95 -110 95 l-70
0 0 -95z m115 0 c0 -47 -2 -50 -27 -53 -28 -3 -28 -3 -28 53 0 56 0 56 28 53
25 -3 27 -6 27 -53z"/>
<path d="M1680 265 l0 -95 85 0 c78 0 85 2 85 20 0 18 -7 20 -55 20 -48 0 -55
2 -55 20 0 17 7 20 50 20 43 0 50 3 50 20 0 17 -7 20 -50 20 -38 0 -50 4 -50
15 0 12 13 15 55 15 48 0 55 2 55 20 0 18 -7 20 -85 20 l-85 0 0 -95z"/>
<path d="M1960 265 l0 -95 30 0 c22 0 30 5 30 18 0 9 9 28 19 42 l19 24 17
-42 c16 -39 20 -42 57 -42 l40 0 -23 38 c-13 20 -29 47 -37 60 -14 21 -13 25
18 57 l34 35 -41 0 c-35 0 -45 -5 -63 -30 -12 -16 -26 -30 -31 -30 -5 0 -9 14
-9 30 0 27 -3 30 -30 30 l-30 0 0 -95z"/>
<path d="M2280 265 l0 -95 30 0 c28 0 30 2 30 40 0 39 1 40 35 40 34 0 35 -1
35 -40 0 -38 2 -40 30 -40 l30 0 0 95 0 95 -29 0 c-26 0 -30 -4 -33 -32 -3
-29 -7 -33 -35 -36 -32 -3 -33 -2 -33 32 0 33 -2 36 -30 36 l-30 0 0 -95z"/>
<path d="M3070 265 l0 -95 30 0 c28 0 30 3 30 35 0 33 2 35 33 35 47 0 77 24
77 64 0 47 -15 56 -97 56 l-73 0 0 -95z m94 59 c27 -10 20 -44 -9 -44 -18 0
-25 5 -25 18 0 29 9 36 34 26z"/>
<path d="M3360 265 l0 -95 30 0 c28 0 30 2 30 41 0 39 1 40 33 37 29 -3 32 -6
35 -40 3 -35 6 -38 33 -38 l29 0 0 95 0 95 -29 0 c-26 0 -30 -4 -33 -32 -3
-29 -7 -33 -35 -36 -32 -3 -33 -2 -33 32 0 33 -2 36 -30 36 l-30 0 0 -95z"/>
<path d="M3670 265 l0 -95 30 0 30 0 0 95 0 95 -30 0 -30 0 0 -95z"/>
<path d="M3870 265 c0 -95 0 -95 25 -95 23 0 25 4 25 40 0 22 4 40 10 40 5 0
22 -18 36 -40 22 -33 32 -40 60 -40 l33 0 -20 35 c-12 19 -25 38 -31 41 -5 3
0 13 11 21 23 16 28 62 9 81 -7 7 -42 12 -85 12 l-73 0 0 -95z m99 56 c19 -12
6 -41 -18 -41 -23 0 -35 15 -27 35 6 17 24 19 45 6z"/>
<path d="M4630 265 l0 -95 30 0 c28 0 30 2 30 41 0 39 1 40 33 37 29 -3 32 -6
35 -40 3 -35 6 -38 33 -38 l29 0 0 95 0 95 -29 0 c-26 0 -30 -4 -33 -32 -3
-29 -7 -33 -35 -36 -32 -3 -33 -2 -33 32 0 33 -2 36 -30 36 l-30 0 0 -95z"/>
<path d="M4940 295 c0 -35 5 -75 11 -89 15 -32 60 -50 107 -43 56 10 72 36 72
123 l0 74 -30 0 -29 0 -3 -72 c-3 -68 -5 -73 -27 -76 -32 -5 -41 12 -41 86 l0
62 -30 0 -30 0 0 -65z"/>
<path d="M5260 265 c0 -94 0 -95 24 -95 23 0 25 4 28 53 l3 52 35 -52 c30 -45
40 -53 68 -53 l32 0 0 95 0 95 -29 0 c-29 0 -30 -2 -33 -52 l-3 -53 -34 53
c-27 43 -38 52 -62 52 l-29 0 0 -95z"/>
</g>
</svg>
