<?xml version="1.0" standalone="no"?>
<!DOCTYPE svg PUBLIC "-//W3C//DTD SVG 20010904//EN"
 "http://www.w3.org/TR/2001/REC-SVG-20010904/DTD/svg10.dtd">
<svg version="1.0" xmlns="http://www.w3.org/2000/svg"
 width="4127.000000pt" height="3906.000000pt" viewBox="0 0 4127.000000 3906.000000"
 preserveAspectRatio="xMidYMid meet">

<g transform="translate(0.000000,3906.000000) scale(0.100000,-0.100000)"
fill="#000000" stroke="none">
<path d="M17405 32839 c-88 -4 -200 -12 -250 -17 -49 -6 -137 -11 -195 -12
-58 -1 -127 -6 -155 -11 -27 -5 -100 -16 -162 -24 -62 -7 -117 -16 -123 -20
-7 -4 -57 -7 -112 -6 -74 1 -105 -2 -117 -12 -9 -8 -38 -17 -65 -21 -26 -3
-69 -12 -95 -20 -25 -8 -84 -20 -131 -25 -137 -17 -200 -29 -214 -40 -7 -6
-55 -14 -107 -17 -52 -4 -103 -13 -114 -20 -11 -8 -26 -14 -35 -14 -8 0 -28
-7 -44 -15 -17 -9 -56 -15 -101 -15 -50 0 -76 -4 -84 -14 -6 -8 -32 -17 -56
-21 -25 -3 -57 -13 -73 -21 -15 -7 -44 -14 -65 -14 -21 0 -54 -7 -74 -15 -19
-8 -52 -15 -73 -15 -21 0 -43 -7 -50 -15 -7 -8 -26 -15 -43 -15 -27 0 -69 -16
-150 -56 -16 -8 -49 -14 -75 -14 -25 0 -53 -6 -61 -13 -9 -8 -41 -19 -71 -26
-30 -6 -77 -23 -105 -36 -31 -16 -68 -25 -96 -25 -29 0 -51 -6 -59 -15 -7 -8
-20 -15 -30 -15 -10 0 -23 -6 -29 -14 -7 -8 -28 -17 -49 -21 -20 -4 -49 -13
-64 -21 -15 -8 -38 -14 -51 -14 -14 0 -30 -7 -37 -15 -7 -8 -24 -15 -37 -15
-14 0 -53 -16 -88 -35 -50 -27 -70 -33 -98 -28 -29 4 -37 2 -46 -16 -7 -11
-20 -21 -29 -21 -10 0 -26 -6 -37 -14 -11 -7 -36 -17 -55 -21 -38 -8 -45 -11
-107 -43 -23 -12 -47 -22 -54 -22 -6 0 -33 -13 -59 -29 -25 -16 -62 -32 -81
-36 -19 -4 -43 -14 -54 -21 -11 -8 -27 -14 -36 -14 -9 0 -36 -13 -60 -30 -27
-18 -57 -30 -78 -30 -20 0 -43 -8 -55 -19 -23 -22 -138 -81 -156 -81 -7 0 -23
-9 -37 -20 -14 -11 -35 -20 -47 -20 -12 0 -33 -13 -48 -30 -19 -22 -35 -30
-58 -30 -18 0 -43 -9 -57 -20 -14 -11 -33 -20 -42 -20 -10 0 -30 -13 -46 -30
-19 -19 -39 -30 -57 -30 -15 0 -28 -5 -28 -11 0 -5 -15 -16 -34 -24 -19 -8
-47 -26 -62 -40 -18 -16 -38 -25 -60 -25 -19 0 -34 -4 -34 -10 0 -5 -20 -19
-44 -31 -24 -11 -52 -29 -62 -40 -9 -10 -27 -19 -39 -19 -12 0 -39 -15 -61
-33 -21 -18 -60 -43 -86 -55 -25 -12 -49 -26 -53 -32 -3 -5 -15 -10 -25 -10
-10 0 -28 -13 -40 -30 -16 -23 -29 -30 -55 -30 -24 0 -35 -5 -40 -19 -3 -10
-20 -25 -37 -32 -17 -7 -42 -23 -56 -36 -14 -13 -33 -23 -42 -23 -10 0 -39
-20 -66 -45 -26 -25 -55 -45 -64 -45 -9 0 -25 -9 -35 -20 -10 -11 -24 -20 -32
-20 -8 0 -28 -13 -45 -30 -16 -16 -39 -30 -51 -30 -12 0 -41 -21 -69 -50 -26
-27 -56 -50 -67 -50 -11 0 -25 -9 -31 -20 -6 -11 -17 -20 -24 -20 -8 0 -19 -7
-27 -16 -7 -8 -29 -24 -50 -35 -21 -10 -58 -39 -83 -64 -25 -25 -51 -45 -57
-45 -7 0 -36 -20 -65 -45 -28 -25 -57 -45 -63 -45 -5 0 -16 -8 -23 -17 -7 -10
-33 -31 -58 -48 -25 -16 -73 -55 -107 -87 -34 -32 -68 -58 -76 -58 -9 0 -32
-20 -53 -45 -27 -34 -43 -45 -64 -45 -22 0 -30 -6 -38 -28 -6 -17 -31 -43 -63
-65 -30 -19 -80 -61 -112 -91 -33 -31 -63 -56 -68 -56 -6 0 -69 -58 -141 -130
-72 -71 -136 -130 -142 -130 -14 0 -57 -45 -71 -73 -5 -12 -19 -24 -30 -27
-30 -8 -65 -42 -65 -63 0 -10 -12 -23 -27 -30 -40 -17 -73 -49 -73 -69 0 -11
-15 -25 -37 -35 -24 -11 -45 -31 -55 -53 -10 -19 -32 -41 -50 -50 -19 -8 -41
-30 -50 -49 -10 -19 -26 -40 -36 -45 -30 -18 -62 -50 -62 -62 0 -6 -59 -70
-130 -142 -71 -72 -130 -135 -130 -141 0 -5 -31 -42 -70 -83 -38 -40 -70 -77
-70 -83 -1 -16 -45 -66 -70 -78 -13 -7 -27 -26 -32 -42 -4 -18 -26 -46 -53
-68 -25 -21 -45 -46 -45 -55 0 -9 -22 -39 -49 -67 -27 -27 -64 -73 -82 -100
-19 -28 -42 -59 -52 -70 -45 -49 -117 -148 -117 -160 0 -7 -11 -20 -25 -29
-14 -10 -30 -28 -35 -42 -5 -13 -14 -24 -19 -24 -5 0 -12 -9 -16 -19 -5 -18
-48 -79 -79 -111 -7 -8 -17 -26 -21 -40 -4 -13 -27 -44 -51 -67 -24 -23 -44
-51 -44 -62 0 -10 -13 -33 -30 -51 -16 -18 -30 -38 -30 -45 0 -6 -9 -20 -20
-30 -11 -10 -20 -26 -20 -36 0 -9 -20 -38 -44 -64 -24 -25 -47 -57 -50 -70 -3
-13 -17 -36 -31 -51 -13 -14 -27 -36 -31 -48 -4 -11 -15 -27 -25 -34 -11 -7
-19 -25 -19 -38 0 -16 -11 -36 -30 -52 -16 -15 -30 -34 -30 -44 0 -9 -5 -20
-11 -24 -6 -3 -23 -32 -38 -63 -15 -32 -39 -71 -54 -87 -15 -16 -27 -37 -27
-47 0 -10 -13 -35 -29 -55 -17 -20 -33 -49 -36 -64 -4 -15 -13 -32 -21 -39 -8
-6 -14 -21 -14 -33 0 -12 -16 -40 -35 -62 -19 -21 -35 -46 -35 -55 0 -9 -7
-22 -15 -29 -8 -7 -15 -21 -15 -31 0 -10 -9 -26 -19 -36 -30 -29 -81 -131 -81
-163 0 -21 -9 -38 -30 -57 -16 -14 -30 -34 -30 -42 0 -9 -7 -26 -15 -37 -8
-12 -24 -47 -36 -78 -11 -31 -36 -80 -55 -109 -19 -29 -34 -64 -34 -81 0 -17
-12 -48 -27 -69 -26 -38 -36 -60 -63 -137 -6 -19 -28 -69 -47 -110 -20 -41
-43 -91 -51 -110 -8 -19 -21 -47 -29 -62 -7 -14 -13 -37 -13 -50 0 -12 -7 -32
-15 -42 -8 -11 -15 -28 -15 -38 0 -9 -9 -22 -19 -28 -15 -7 -19 -20 -18 -52 1
-32 -7 -56 -31 -94 -18 -28 -32 -61 -32 -74 0 -12 -6 -34 -14 -48 -8 -15 -26
-63 -39 -107 -14 -44 -37 -102 -51 -129 -15 -28 -26 -65 -26 -86 0 -22 -13
-63 -29 -96 -16 -33 -32 -82 -36 -111 -4 -29 -13 -57 -21 -64 -9 -7 -14 -31
-14 -64 0 -35 -5 -57 -15 -65 -8 -7 -15 -22 -15 -33 0 -11 -7 -29 -16 -39 -10
-10 -19 -40 -22 -68 -2 -27 -11 -55 -18 -61 -8 -6 -14 -29 -14 -51 0 -22 -5
-49 -12 -61 -6 -12 -17 -51 -24 -87 -18 -95 -35 -153 -50 -171 -9 -10 -14 -42
-14 -92 0 -42 -6 -91 -14 -109 -31 -75 -39 -107 -48 -193 -5 -49 -15 -102 -23
-117 -8 -14 -15 -43 -15 -63 0 -20 -4 -44 -10 -54 -5 -10 -14 -64 -19 -120 -5
-56 -15 -109 -21 -116 -7 -8 -14 -41 -17 -75 -3 -33 -12 -65 -19 -71 -10 -8
-14 -40 -14 -116 0 -57 -4 -113 -10 -123 -5 -10 -13 -58 -16 -107 -3 -48 -12
-110 -20 -137 -8 -28 -14 -95 -14 -155 0 -58 -9 -178 -21 -266 -19 -150 -20
-209 -20 -980 1 -531 4 -839 11 -875 16 -83 18 -110 25 -300 4 -96 13 -195 20
-220 7 -25 16 -82 19 -128 3 -45 10 -91 16 -101 5 -11 10 -69 10 -129 0 -85 3
-112 15 -122 8 -7 15 -28 15 -46 0 -19 9 -60 19 -91 11 -32 22 -95 25 -141 3
-45 10 -91 16 -101 5 -11 10 -39 10 -63 0 -24 6 -55 14 -70 8 -15 17 -62 21
-105 4 -43 14 -87 21 -98 8 -11 14 -31 14 -45 0 -14 7 -36 16 -48 11 -15 14
-42 13 -92 -2 -53 2 -74 14 -88 10 -10 17 -31 17 -46 0 -14 6 -42 14 -61 8
-19 18 -56 22 -82 3 -26 13 -63 20 -82 8 -18 14 -50 14 -71 0 -21 7 -43 15
-50 8 -7 15 -26 15 -42 0 -17 7 -42 14 -56 35 -65 56 -128 56 -172 0 -28 6
-52 14 -59 8 -6 17 -33 21 -59 4 -26 20 -75 36 -109 18 -39 29 -79 29 -106 0
-27 6 -49 15 -57 8 -7 15 -20 15 -30 0 -10 7 -23 15 -30 8 -7 15 -19 15 -28 0
-21 39 -141 56 -174 8 -14 14 -35 14 -47 0 -11 14 -44 32 -73 22 -37 31 -65
31 -93 0 -28 5 -44 18 -53 11 -7 19 -21 19 -31 0 -9 5 -22 11 -28 6 -6 14 -26
19 -44 14 -53 36 -109 48 -121 7 -7 12 -20 12 -31 0 -10 16 -46 35 -78 19 -33
35 -70 35 -82 0 -12 9 -35 20 -52 11 -16 20 -39 20 -50 0 -12 13 -36 30 -55
20 -24 29 -46 30 -71 0 -22 10 -48 26 -70 27 -36 74 -133 74 -154 0 -7 6 -18
14 -24 8 -7 18 -27 21 -44 4 -18 20 -44 36 -59 20 -19 29 -37 29 -58 0 -18 9
-43 20 -57 11 -14 20 -31 20 -38 0 -7 14 -29 30 -50 17 -21 30 -46 30 -55 0
-10 7 -23 15 -30 8 -7 15 -18 15 -25 0 -7 16 -32 35 -55 22 -26 35 -52 35 -70
0 -16 5 -32 10 -35 6 -4 20 -25 31 -48 12 -23 30 -50 40 -60 11 -10 19 -28 19
-40 0 -12 13 -36 28 -53 16 -17 34 -45 41 -62 7 -17 24 -45 37 -63 13 -18 24
-41 24 -51 0 -9 14 -27 30 -40 21 -15 30 -30 30 -50 0 -16 7 -31 19 -37 10 -6
21 -21 24 -33 4 -13 20 -38 37 -56 16 -18 30 -41 30 -50 0 -9 20 -39 45 -65
25 -27 45 -57 45 -67 0 -11 6 -23 14 -27 7 -4 21 -25 31 -46 10 -21 26 -42 36
-48 11 -5 19 -21 19 -35 0 -16 15 -39 44 -67 24 -23 47 -54 51 -67 4 -14 16
-31 26 -38 11 -7 19 -18 19 -24 0 -5 20 -37 45 -69 25 -33 45 -64 45 -69 0 -5
11 -17 25 -26 14 -9 32 -31 39 -48 7 -17 32 -52 55 -78 22 -25 41 -51 41 -57
0 -5 6 -14 14 -18 8 -4 31 -33 51 -63 21 -30 59 -77 85 -105 26 -27 51 -60 55
-72 3 -13 26 -39 50 -59 28 -23 45 -45 47 -62 2 -18 12 -31 31 -40 16 -8 41
-33 55 -55 15 -23 48 -63 74 -88 25 -26 58 -65 72 -87 14 -22 66 -81 116 -132
49 -50 90 -95 90 -101 0 -5 11 -14 24 -19 13 -4 36 -29 52 -54 17 -27 39 -49
54 -53 14 -3 37 -14 51 -22 30 -18 125 -123 179 -196 19 -26 44 -57 55 -69 11
-12 33 -41 49 -64 16 -23 35 -42 43 -42 8 0 36 -21 61 -46 150 -148 327 -314
335 -314 12 0 32 -17 85 -74 20 -21 61 -54 90 -72 29 -19 57 -45 61 -58 6 -14
20 -25 39 -29 18 -4 43 -23 66 -51 21 -25 45 -46 55 -46 9 0 37 -21 61 -46 43
-44 94 -83 147 -112 13 -8 27 -20 30 -28 3 -8 10 -14 17 -14 6 0 37 -23 69
-50 32 -28 65 -50 73 -50 7 0 23 -13 36 -30 12 -16 26 -30 32 -30 6 0 19 -9
31 -20 19 -20 116 -86 179 -123 17 -10 47 -37 67 -59 24 -27 41 -39 51 -35 10
3 31 -8 54 -29 22 -19 46 -34 54 -34 8 0 21 -9 28 -20 7 -11 21 -20 32 -20 12
0 42 -20 68 -45 28 -27 56 -45 70 -45 12 0 25 -6 28 -14 3 -8 24 -25 47 -36
23 -12 48 -31 55 -41 8 -12 21 -18 31 -14 11 3 28 -6 47 -25 17 -16 42 -34 55
-40 13 -6 44 -22 68 -35 24 -14 49 -25 56 -25 6 0 26 -16 45 -35 22 -23 43
-35 61 -35 15 0 29 -6 32 -13 2 -7 25 -22 50 -35 24 -12 50 -29 57 -37 7 -8
27 -15 44 -15 23 0 41 -9 61 -30 16 -16 36 -30 45 -30 9 0 25 -9 35 -20 10
-11 27 -20 38 -20 10 0 36 -13 57 -30 21 -16 44 -30 52 -30 8 0 23 -9 33 -20
11 -13 31 -20 52 -20 26 0 41 -8 61 -30 15 -16 35 -30 45 -30 10 0 35 -9 55
-19 20 -11 55 -27 77 -37 22 -9 60 -30 85 -47 25 -17 61 -31 81 -32 21 -1 52
-15 79 -34 23 -17 53 -31 65 -31 13 0 28 -7 35 -15 7 -8 24 -15 38 -15 13 0
54 -15 91 -34 72 -36 114 -55 176 -81 22 -9 53 -23 68 -31 16 -8 34 -14 41
-14 7 0 27 -11 46 -25 27 -20 41 -23 70 -19 22 4 40 2 44 -4 9 -14 110 -62
131 -62 9 0 29 -6 43 -14 15 -8 54 -22 87 -31 70 -21 161 -61 170 -75 3 -6 28
-10 55 -10 32 0 66 -9 99 -26 28 -14 74 -29 101 -33 27 -4 57 -14 66 -22 9 -7
42 -16 73 -20 58 -7 118 -26 142 -46 8 -6 35 -14 61 -17 25 -4 52 -14 58 -21
7 -9 30 -15 54 -15 22 0 59 -7 81 -15 22 -8 56 -14 76 -15 19 0 44 -7 55 -15
10 -8 35 -15 55 -15 21 0 47 -9 63 -21 21 -16 38 -20 88 -18 49 2 84 -5 153
-28 55 -19 121 -33 170 -37 43 -3 84 -11 89 -16 6 -6 23 -10 38 -10 15 0 45
-6 65 -14 21 -8 76 -17 122 -21 47 -4 101 -13 120 -20 20 -7 57 -16 84 -19 26
-3 59 -13 72 -22 21 -14 40 -16 104 -10 55 4 96 2 137 -8 33 -8 93 -18 134
-21 41 -4 83 -11 92 -16 9 -5 65 -11 125 -14 262 -11 354 -18 359 -26 7 -12
1841 -12 1848 0 5 8 71 13 351 27 55 3 111 9 125 14 14 5 70 14 126 19 56 6
112 15 125 19 13 5 63 7 111 4 75 -4 90 -2 111 15 15 11 43 20 71 22 25 1 61
8 79 16 18 7 73 16 123 20 87 6 190 27 227 47 10 5 60 13 110 17 51 4 101 12
112 18 52 26 134 46 189 44 41 -2 63 2 76 14 10 9 39 20 66 24 27 5 63 14 79
19 38 13 127 32 185 39 25 3 52 11 60 18 8 7 34 16 57 20 23 3 47 13 54 21 6
8 21 14 33 14 11 0 34 7 50 15 15 8 49 15 74 15 28 0 52 6 64 16 10 10 40 20
67 25 27 4 74 19 103 33 37 17 72 26 105 26 30 0 55 5 61 13 18 21 148 74 207
85 17 3 39 11 50 18 11 7 37 16 57 19 21 4 42 13 49 21 6 8 19 14 29 14 10 0
23 7 30 16 10 11 23 14 51 9 32 -5 40 -3 51 14 7 12 18 21 25 21 7 0 30 9 50
20 21 11 47 20 58 20 11 0 29 7 39 15 11 8 27 15 37 15 9 0 22 7 29 15 7 8 22
15 33 15 11 0 42 14 70 31 28 17 66 33 86 36 20 3 43 11 51 18 8 7 31 18 51
24 20 6 51 23 70 37 21 16 42 23 55 20 14 -4 28 2 39 14 10 11 25 20 33 20 9
0 23 7 32 15 10 9 44 25 76 36 32 11 66 27 75 35 8 8 25 14 37 14 12 0 34 13
49 30 20 23 35 30 62 30 24 0 42 7 54 20 9 11 24 20 33 20 9 0 33 13 54 30 21
16 47 30 57 30 11 0 28 9 38 20 10 11 23 20 28 20 6 0 25 11 43 25 l33 25 58
-68 c32 -37 1146 -1369 2476 -2960 l2419 -2892 66 -32 c59 -29 76 -33 147 -33
60 0 91 6 127 22 44 20 2135 1670 2226 1757 70 66 96 126 96 221 1 61 -4 91
-20 125 -12 27 -986 1200 -2429 2925 -1324 1584 -2417 2890 -2428 2903 -18 19
-19 26 -9 40 7 9 15 24 18 32 12 34 22 45 40 48 27 5 64 42 64 64 0 11 12 23
28 30 39 17 72 49 72 69 0 10 11 24 24 31 14 7 37 29 53 49 38 47 107 121 167
178 27 25 74 78 104 116 31 39 72 87 92 107 20 20 49 57 65 82 15 25 41 50 57
57 18 7 28 19 28 33 0 13 21 42 50 71 28 27 50 55 50 62 0 7 10 22 23 35 48
47 137 156 137 167 0 6 11 21 25 33 14 12 25 26 25 31 0 6 20 32 45 58 25 26
45 55 45 63 0 8 13 25 28 38 15 13 31 30 35 38 4 8 21 33 38 55 16 22 41 56
54 77 13 20 29 39 35 43 5 3 10 15 10 25 0 10 20 37 45 61 25 24 45 52 45 62
0 11 16 37 35 58 19 22 35 45 35 52 0 8 9 22 20 32 11 10 20 26 20 36 0 9 20
36 45 60 25 24 45 52 45 63 1 12 14 37 30 56 17 19 30 39 30 46 0 6 9 19 20
29 11 10 20 28 20 40 0 11 16 36 35 55 19 19 35 42 35 51 0 10 4 20 9 24 6 3
20 27 33 53 12 26 37 65 55 86 18 22 33 49 33 60 0 12 12 32 25 45 14 13 28
35 32 50 3 14 14 34 24 44 11 10 19 29 19 44 0 14 13 40 30 60 16 18 30 40 30
47 0 7 9 23 20 36 11 13 20 30 20 38 0 8 13 31 30 52 17 21 30 44 30 51 0 7 7
20 16 30 9 10 18 36 21 58 4 27 15 48 34 66 16 14 29 35 29 46 0 11 9 32 20
46 11 14 20 32 20 39 0 21 32 86 62 125 18 24 28 49 28 71 0 21 10 48 25 68
14 19 31 52 37 72 6 21 17 43 25 49 7 6 13 23 13 38 0 14 11 46 25 71 14 25
30 56 36 70 6 14 18 41 26 60 8 19 21 48 29 63 8 16 14 36 14 45 0 10 9 34 20
55 11 20 20 43 20 51 0 8 7 16 15 20 10 3 15 19 15 47 0 29 9 57 29 89 16 25
32 62 36 81 4 19 13 43 20 54 6 11 14 34 17 50 11 57 70 199 88 210 6 3 10 29
10 57 0 34 9 69 25 104 14 30 30 75 35 101 4 27 16 62 24 78 9 17 16 47 16 67
0 20 8 51 17 70 9 18 21 42 26 53 6 11 14 42 18 68 5 27 14 56 21 64 7 9 11
26 10 38 -2 13 4 39 12 60 9 20 18 60 22 88 4 29 11 60 16 69 4 10 13 41 18
70 6 28 16 55 23 60 8 5 12 35 13 85 1 51 7 88 18 108 9 17 16 38 16 48 0 10
6 30 14 45 7 15 16 65 19 111 3 46 10 88 16 94 6 6 11 26 11 44 0 19 6 46 14
61 7 15 16 69 20 120 3 50 13 108 21 128 8 20 15 56 15 79 0 27 7 51 20 68 18
23 20 39 19 124 -1 54 3 123 9 153 22 106 33 207 47 425 8 121 19 234 25 250
14 44 16 1826 1 1851 -6 10 -17 120 -26 244 -15 244 -38 439 -56 482 -7 17 -8
57 -4 115 6 77 5 92 -10 106 -10 11 -20 43 -25 81 -4 35 -13 72 -19 83 -5 11
-13 58 -16 104 -4 46 -13 101 -21 122 -8 20 -14 52 -14 70 0 18 -5 38 -11 44
-6 6 -13 46 -16 89 -3 51 -16 111 -36 169 -23 67 -30 106 -29 154 1 50 -4 70
-19 89 -10 14 -19 39 -19 56 -1 17 -7 42 -15 56 -8 14 -14 40 -15 57 0 18 -9
60 -21 94 -12 33 -19 69 -16 79 2 10 -4 31 -14 47 -10 15 -19 41 -19 56 0 16
-6 41 -13 55 -8 15 -21 42 -30 60 -9 19 -17 51 -17 73 0 21 -9 56 -20 76 -11
21 -20 47 -20 59 0 26 -29 113 -47 139 -7 11 -13 43 -13 72 0 28 -4 54 -9 57
-19 12 -77 151 -91 218 -4 21 -12 43 -17 50 -6 7 -14 28 -18 47 -4 19 -20 56
-36 83 -20 34 -29 62 -29 92 0 28 -5 46 -14 49 -7 3 -16 18 -20 34 -4 15 -13
43 -22 60 -8 18 -21 48 -30 68 -8 19 -22 52 -31 72 -9 21 -31 68 -49 104 -19
37 -34 78 -34 91 0 14 -6 31 -14 37 -8 7 -18 25 -21 41 -4 16 -18 46 -32 66
-14 21 -27 54 -30 73 -4 20 -12 40 -20 44 -7 4 -13 15 -13 24 0 9 -6 24 -13
32 -7 9 -21 36 -31 61 -10 25 -26 62 -37 82 -10 20 -19 46 -19 57 0 12 -11 26
-29 35 -23 13 -29 23 -33 61 -3 25 -13 54 -22 64 -9 10 -16 24 -16 32 0 8 -13
30 -30 49 -16 19 -29 44 -30 56 0 11 -9 29 -20 39 -11 10 -20 24 -20 31 0 7
-13 29 -30 47 -16 19 -30 46 -30 59 0 14 -8 36 -17 49 -10 13 -26 41 -37 61
-10 20 -25 39 -32 42 -8 3 -14 17 -14 31 0 14 -14 41 -34 62 -18 21 -36 48
-40 60 -4 12 -17 37 -30 56 -13 19 -27 44 -31 56 -3 11 -19 34 -36 50 -16 17
-29 40 -29 54 0 14 -6 27 -14 30 -8 3 -22 21 -31 40 -9 20 -25 43 -36 53 -10
9 -19 27 -19 38 0 13 -19 41 -45 66 -25 24 -45 52 -45 62 0 10 -9 26 -20 35
-11 10 -20 25 -20 34 0 9 -16 31 -35 50 -19 19 -35 43 -35 55 0 11 -16 36 -36
55 -20 18 -43 48 -50 64 -8 17 -30 50 -49 75 -19 25 -44 61 -54 81 -11 20 -38
54 -61 75 -22 21 -40 44 -40 51 0 7 -19 35 -42 63 -79 93 -98 118 -98 129 0 7
-16 19 -35 27 -36 15 -98 99 -117 159 -6 16 -30 49 -54 72 -29 28 -44 51 -44
67 0 19 -8 27 -33 35 -21 7 -39 24 -52 48 -11 20 -41 57 -66 82 -25 25 -63 69
-83 96 -21 28 -91 105 -157 172 -65 66 -119 124 -119 129 0 10 -58 64 -70 64
-5 0 -12 11 -16 25 -7 27 -57 75 -79 75 -8 0 -17 10 -21 23 -9 32 -34 57 -71
72 -21 9 -33 21 -33 33 0 22 -35 57 -67 67 -13 3 -26 17 -29 30 -7 27 -40 60
-71 69 -12 4 -25 16 -28 27 -4 10 -15 24 -26 30 -11 6 -77 66 -147 134 -70 68
-152 142 -182 166 -30 24 -74 62 -98 86 -23 23 -60 52 -82 64 -22 13 -46 37
-55 56 -11 23 -23 33 -38 33 -13 0 -40 18 -66 45 -24 25 -49 45 -55 45 -7 0
-30 18 -51 41 -40 41 -126 109 -155 122 -8 4 -42 30 -75 57 -33 28 -73 58 -89
68 -16 9 -50 36 -75 60 -25 24 -58 50 -73 58 -15 8 -48 29 -74 46 -25 18 -64
44 -86 56 -22 13 -54 39 -70 58 -17 19 -40 34 -52 34 -11 0 -34 14 -50 30 -16
17 -37 30 -47 30 -10 0 -23 9 -29 20 -6 11 -20 20 -31 20 -11 0 -42 20 -68 45
-26 25 -55 45 -64 45 -17 0 -95 53 -133 89 -12 12 -32 21 -46 21 -15 0 -35 12
-51 30 -15 17 -36 30 -46 30 -10 0 -24 7 -31 15 -7 9 -34 25 -60 36 -26 11
-60 34 -76 50 -18 19 -38 29 -56 29 -16 0 -31 7 -34 15 -4 9 -27 25 -53 37
-25 11 -50 27 -54 34 -4 8 -22 14 -39 14 -18 0 -43 11 -63 28 -48 39 -104 72
-123 72 -9 1 -33 14 -52 30 -19 17 -42 30 -51 30 -9 0 -24 9 -34 20 -11 13
-31 20 -53 20 -25 0 -41 8 -62 30 -15 17 -35 30 -45 30 -9 0 -33 9 -53 20 -20
10 -62 30 -92 44 -30 14 -70 36 -89 50 -21 16 -48 26 -69 26 -20 0 -46 10 -67
25 -18 15 -46 28 -62 31 -15 3 -35 11 -43 18 -8 8 -33 17 -55 21 -22 4 -60 20
-84 36 -24 17 -56 33 -72 36 -16 3 -34 12 -40 19 -6 8 -22 14 -35 14 -12 0
-25 4 -28 9 -3 5 -21 12 -39 15 -38 7 -101 37 -128 62 -13 12 -28 15 -50 10
-18 -3 -37 -2 -44 4 -27 22 -107 60 -128 60 -13 0 -31 6 -42 14 -11 7 -31 16
-45 19 -72 16 -205 71 -216 88 -3 5 -27 9 -54 9 -33 0 -67 9 -106 29 -33 16
-80 32 -106 35 -25 4 -52 14 -58 21 -8 10 -31 15 -64 15 -30 0 -60 6 -72 15
-10 8 -31 15 -45 15 -15 0 -38 9 -52 20 -14 11 -39 20 -55 20 -16 0 -35 7 -42
15 -8 9 -30 15 -59 15 -26 0 -52 5 -58 11 -5 5 -37 13 -69 16 -32 3 -68 11
-79 18 -11 7 -41 15 -67 19 -25 4 -52 14 -58 21 -9 11 -34 15 -85 15 -45 0
-84 6 -101 15 -16 8 -38 15 -49 15 -11 1 -31 7 -45 15 -14 8 -45 15 -70 15
-25 0 -63 5 -85 11 -22 6 -65 15 -95 20 -30 6 -62 14 -71 19 -9 5 -61 12 -115
16 -55 3 -110 12 -124 19 -14 7 -44 15 -68 19 -24 3 -54 13 -67 22 -17 11 -49
15 -131 14 -60 -1 -124 3 -142 9 -17 5 -69 13 -115 17 -45 3 -90 11 -100 16
-18 9 -66 13 -322 23 -82 4 -156 12 -163 17 -15 13 -1449 19 -1687 7z m1027
-1955 c28 -15 64 -16 314 -9 249 6 285 5 311 -9 17 -10 73 -20 148 -26 244
-20 425 -39 436 -46 7 -4 53 -11 103 -15 89 -7 164 -22 279 -53 32 -9 75 -16
96 -16 20 0 46 -7 57 -15 10 -8 42 -15 69 -15 28 0 61 -7 75 -15 14 -8 45 -15
70 -15 25 -1 63 -7 85 -15 22 -8 59 -17 82 -21 23 -3 48 -12 54 -20 7 -9 33
-14 73 -14 56 -1 133 -20 181 -47 11 -6 46 -14 77 -18 32 -4 63 -13 69 -21 6
-8 21 -14 33 -14 11 0 39 -7 61 -15 22 -8 56 -14 76 -15 23 0 43 -7 54 -20 10
-11 26 -20 35 -20 10 0 23 -7 30 -15 8 -10 30 -15 65 -15 33 0 57 -5 64 -14 6
-8 24 -16 39 -19 37 -7 90 -26 134 -48 20 -10 51 -19 68 -19 28 0 51 -9 110
-41 39 -22 111 -52 165 -71 78 -26 162 -65 171 -79 3 -6 20 -8 38 -5 26 5 40
0 72 -24 21 -16 46 -30 55 -30 9 0 28 -9 42 -20 14 -11 34 -20 45 -20 28 0
138 -56 154 -79 7 -10 28 -22 47 -26 38 -8 179 -73 187 -86 3 -5 17 -9 31 -9
14 0 59 -22 100 -50 41 -27 85 -50 98 -50 13 0 28 -6 32 -14 4 -8 28 -24 51
-36 24 -13 46 -29 49 -36 3 -9 20 -14 43 -14 22 0 43 -7 51 -16 16 -20 105
-79 144 -95 17 -7 49 -30 72 -51 24 -21 51 -38 60 -38 19 0 95 -47 125 -76 10
-10 30 -19 44 -20 15 -2 39 -16 53 -31 15 -15 53 -44 86 -63 32 -19 74 -50 93
-67 23 -22 44 -33 63 -33 23 0 34 -7 47 -30 9 -16 26 -31 37 -34 11 -3 36 -19
55 -36 18 -16 39 -30 45 -30 6 0 24 -14 41 -31 16 -17 43 -37 59 -45 17 -8 50
-32 73 -54 24 -22 53 -40 63 -40 13 0 24 -10 30 -30 6 -16 17 -30 24 -30 7 0
40 -22 73 -50 33 -27 63 -50 68 -50 9 0 20 -10 94 -80 30 -29 67 -58 82 -66
15 -8 39 -29 53 -48 14 -19 36 -37 49 -40 12 -3 37 -24 55 -47 19 -22 46 -45
62 -51 16 -6 32 -20 35 -31 3 -12 23 -33 45 -47 22 -14 55 -44 72 -67 18 -23
42 -46 55 -52 12 -6 27 -22 32 -36 5 -14 16 -25 23 -25 16 0 282 -264 305
-302 9 -16 21 -28 27 -28 7 0 26 -18 44 -40 19 -24 40 -40 53 -40 33 0 124
-98 132 -143 5 -26 24 -54 66 -97 32 -33 65 -60 72 -60 19 0 128 -107 128
-125 0 -33 41 -87 139 -183 99 -97 103 -103 97 -135 -5 -28 -2 -37 25 -63 17
-16 40 -45 52 -64 11 -19 36 -52 54 -73 18 -20 33 -41 33 -47 0 -5 13 -24 29
-42 15 -18 31 -42 35 -53 3 -11 16 -25 28 -30 15 -7 27 -24 33 -50 6 -22 23
-53 38 -70 33 -34 97 -130 97 -144 0 -5 14 -19 30 -31 21 -15 30 -30 30 -49 0
-16 10 -37 25 -51 14 -13 25 -28 25 -33 0 -5 11 -22 25 -39 14 -16 25 -40 25
-52 0 -12 16 -37 35 -56 20 -19 52 -68 72 -109 21 -41 50 -86 65 -99 20 -18
28 -35 28 -57 0 -19 8 -39 20 -50 11 -10 20 -23 20 -29 0 -7 13 -27 30 -46 16
-19 29 -43 30 -53 0 -20 16 -52 68 -131 17 -28 32 -60 32 -72 0 -12 7 -27 15
-34 8 -7 15 -17 15 -22 0 -15 39 -96 50 -103 5 -3 10 -16 10 -28 0 -12 16 -44
35 -71 19 -27 35 -55 35 -61 0 -6 9 -28 20 -50 11 -22 20 -47 20 -56 0 -9 6
-22 14 -28 7 -6 16 -24 19 -40 3 -15 17 -42 31 -59 15 -17 26 -42 26 -59 0
-16 16 -61 35 -100 19 -39 35 -76 35 -82 0 -6 9 -28 20 -48 11 -21 20 -45 20
-53 0 -14 20 -58 49 -110 32 -57 41 -82 41 -112 0 -18 6 -42 14 -53 7 -11 21
-49 30 -85 9 -36 25 -77 36 -92 14 -18 20 -43 20 -76 0 -32 5 -54 15 -62 8 -7
15 -19 15 -28 0 -8 7 -23 16 -33 9 -10 18 -37 21 -61 3 -24 16 -74 30 -113 14
-38 31 -97 38 -130 7 -33 25 -91 40 -130 20 -53 25 -81 21 -117 -4 -37 -1 -52
15 -71 10 -14 19 -35 19 -47 0 -12 5 -31 12 -43 6 -12 17 -60 24 -107 11 -80
23 -132 45 -206 5 -18 12 -63 15 -100 3 -38 14 -91 24 -119 15 -42 29 -125 54
-315 3 -19 9 -59 15 -88 5 -29 12 -102 16 -162 3 -60 9 -119 14 -132 5 -13 12
-72 15 -133 4 -60 12 -127 17 -149 6 -21 10 -155 10 -298 -1 -186 3 -266 11
-281 17 -31 18 -508 1 -528 -9 -11 -13 -98 -16 -299 -4 -262 -25 -563 -42
-589 -3 -6 -9 -58 -11 -115 -3 -57 -9 -127 -15 -157 -6 -30 -16 -103 -24 -164
-16 -133 -31 -208 -46 -237 -7 -12 -16 -58 -20 -102 -4 -43 -13 -84 -18 -89
-6 -6 -11 -30 -11 -54 0 -24 -6 -59 -14 -77 -7 -18 -17 -62 -21 -97 -8 -72
-28 -146 -55 -199 -13 -25 -17 -49 -13 -81 3 -30 0 -58 -10 -80 -27 -61 -57
-158 -57 -187 0 -16 -7 -37 -15 -48 -8 -10 -15 -29 -15 -42 0 -13 -6 -35 -14
-50 -7 -15 -16 -49 -20 -76 -3 -27 -11 -55 -17 -62 -27 -32 -49 -92 -49 -132
0 -27 -7 -53 -20 -70 -11 -15 -26 -52 -34 -83 -8 -31 -21 -71 -30 -87 -9 -17
-16 -44 -16 -59 0 -15 -7 -37 -15 -47 -8 -11 -15 -30 -15 -42 0 -13 -4 -26
-10 -29 -14 -9 -60 -104 -60 -124 0 -10 -3 -21 -6 -24 -8 -8 -54 -119 -54
-130 0 -5 -9 -20 -20 -34 -12 -16 -20 -41 -20 -65 0 -28 -8 -49 -25 -70 -14
-16 -28 -42 -31 -56 -4 -15 -12 -34 -19 -42 -7 -8 -18 -34 -24 -57 -7 -23 -16
-45 -21 -48 -6 -3 -10 -15 -10 -25 0 -10 -16 -39 -35 -64 -19 -26 -35 -57 -35
-70 0 -14 -4 -28 -10 -31 -11 -7 -80 -144 -80 -160 0 -14 -35 -79 -71 -133
-16 -24 -29 -51 -29 -61 0 -10 -7 -25 -17 -32 -9 -8 -25 -33 -35 -56 -10 -23
-25 -46 -33 -50 -7 -4 -15 -26 -17 -48 -2 -29 -9 -43 -23 -49 -12 -5 -39 -46
-63 -96 -24 -48 -58 -102 -77 -120 -19 -19 -35 -44 -35 -56 0 -12 -11 -36 -25
-52 -14 -17 -25 -34 -25 -39 0 -5 -11 -19 -25 -31 -16 -14 -25 -32 -25 -52 0
-20 -8 -35 -25 -46 -14 -9 -31 -27 -38 -39 -43 -80 -82 -138 -102 -151 -14 -9
-25 -29 -29 -54 -5 -31 -13 -43 -36 -55 -17 -9 -30 -24 -30 -34 0 -10 -9 -26
-21 -37 -12 -10 -30 -36 -40 -56 -11 -21 -30 -45 -43 -54 -14 -8 -29 -27 -34
-42 -5 -15 -27 -47 -48 -71 -22 -23 -41 -55 -44 -69 -4 -19 -12 -28 -28 -30
-13 -2 -26 -11 -30 -20 -3 -9 -27 -45 -54 -78 -26 -34 -48 -65 -48 -69 0 -9
-13 -24 -87 -100 -26 -28 -55 -64 -63 -79 -8 -16 -29 -39 -46 -53 -18 -13 -37
-37 -44 -54 -7 -16 -25 -36 -40 -44 -16 -8 -36 -33 -47 -55 -10 -22 -27 -42
-38 -46 -22 -7 -64 -52 -65 -69 0 -6 -22 -28 -50 -49 -27 -21 -50 -42 -50 -47
0 -5 -19 -28 -43 -52 -23 -23 -56 -58 -73 -77 -17 -19 -46 -49 -65 -66 -19
-16 -48 -46 -64 -65 -17 -19 -69 -67 -115 -108 -47 -40 -96 -87 -108 -103 -13
-15 -44 -44 -70 -63 -25 -20 -50 -45 -56 -57 -6 -12 -28 -31 -49 -42 -20 -12
-46 -36 -57 -54 -11 -17 -26 -32 -35 -32 -8 0 -37 -22 -65 -50 -28 -27 -56
-50 -63 -50 -6 0 -31 -23 -55 -50 -24 -28 -49 -50 -57 -50 -8 0 -19 -9 -25
-20 -6 -11 -16 -20 -21 -20 -11 0 -79 -50 -111 -83 -10 -9 -24 -17 -32 -17 -8
0 -19 -14 -25 -30 -7 -21 -17 -30 -32 -30 -11 0 -44 -20 -71 -45 -28 -25 -61
-48 -74 -51 -12 -3 -30 -17 -39 -30 -8 -13 -32 -32 -53 -43 -20 -10 -46 -28
-56 -40 -11 -12 -27 -21 -37 -21 -10 0 -25 -13 -33 -29 -16 -31 -34 -41 -71
-41 -13 0 -29 -10 -39 -25 -9 -14 -38 -36 -64 -49 -27 -14 -54 -32 -61 -40 -8
-9 -19 -16 -27 -16 -7 0 -22 -14 -34 -30 -16 -23 -29 -30 -55 -30 -24 0 -37
-7 -49 -25 -9 -14 -22 -25 -30 -25 -7 0 -21 -9 -31 -20 -10 -11 -32 -22 -50
-26 -19 -3 -48 -22 -71 -45 -21 -21 -44 -39 -51 -39 -19 0 -146 -80 -161 -101
-9 -13 -25 -19 -51 -19 -24 0 -41 -5 -44 -14 -3 -8 -26 -24 -52 -35 -25 -11
-48 -27 -51 -35 -4 -9 -18 -16 -34 -16 -16 0 -31 -4 -34 -9 -9 -13 -143 -91
-158 -91 -7 0 -53 -20 -102 -45 -48 -25 -93 -45 -100 -45 -6 0 -33 -16 -60
-35 -27 -19 -54 -35 -60 -35 -6 0 -28 -9 -49 -20 -20 -11 -45 -20 -56 -20 -10
0 -24 -7 -31 -15 -7 -8 -20 -15 -30 -15 -9 0 -36 -14 -58 -30 -29 -21 -53 -30
-80 -30 -25 0 -48 -7 -62 -20 -13 -11 -31 -20 -40 -20 -9 0 -25 -7 -36 -15
-10 -8 -26 -15 -34 -15 -8 0 -33 -9 -54 -21 -21 -11 -40 -18 -43 -15 -4 4 -63
-24 -103 -49 -26 -17 -113 -45 -139 -45 -13 0 -32 -6 -40 -14 -9 -8 -45 -21
-81 -30 -36 -9 -77 -25 -92 -36 -17 -13 -43 -20 -70 -20 -43 0 -87 -17 -138
-53 -13 -9 -43 -17 -65 -17 -22 -1 -51 -7 -65 -15 -14 -8 -35 -14 -48 -15 -12
0 -33 -6 -45 -14 -12 -8 -47 -17 -77 -21 -30 -4 -60 -11 -66 -16 -23 -19 -111
-42 -166 -43 -31 -1 -71 -9 -90 -18 -56 -27 -130 -47 -198 -54 -36 -4 -77 -13
-92 -20 -15 -8 -47 -14 -71 -14 -25 0 -61 -7 -80 -15 -20 -8 -56 -15 -81 -15
-24 0 -68 -9 -98 -19 -69 -25 -212 -51 -280 -51 -30 0 -59 -5 -65 -11 -6 -6
-64 -13 -129 -15 -66 -3 -144 -11 -174 -19 -86 -21 -308 -37 -620 -44 -157 -3
-291 -10 -299 -15 -24 -15 -460 -15 -507 0 -31 11 -108 14 -303 13 -143 0
-266 3 -272 7 -6 4 -75 12 -153 19 -77 7 -159 16 -181 18 -22 3 -98 11 -170
17 -71 6 -134 15 -140 19 -5 5 -44 11 -85 14 -100 7 -203 25 -270 47 -30 11
-90 22 -132 25 -43 4 -80 11 -84 16 -3 5 -19 9 -37 9 -17 0 -49 6 -72 14 -22
8 -67 19 -100 24 -113 20 -170 35 -188 50 -11 10 -41 16 -85 17 -60 2 -130 20
-173 44 -9 5 -38 12 -65 16 -27 4 -62 12 -79 20 -56 24 -130 45 -161 45 -17 0
-43 9 -57 20 -14 11 -31 20 -39 20 -7 0 -22 7 -32 15 -11 8 -39 15 -63 15 -37
0 -74 13 -145 51 -10 5 -28 9 -40 9 -13 0 -36 9 -53 20 -18 12 -47 20 -71 20
-25 0 -47 6 -54 15 -7 8 -18 15 -25 15 -7 0 -40 15 -73 34 -33 19 -63 31 -67
28 -3 -3 -20 1 -38 10 -18 10 -61 29 -97 43 -36 15 -72 33 -81 41 -8 8 -36 14
-61 14 -30 0 -50 6 -59 17 -8 9 -33 25 -56 35 -23 10 -45 23 -48 28 -3 6 -16
10 -28 10 -12 0 -39 9 -60 20 -20 11 -43 20 -49 20 -7 0 -32 15 -56 34 -28 23
-49 32 -63 29 -12 -4 -28 2 -42 15 -12 11 -42 30 -67 41 -25 12 -52 25 -60 30
-8 6 -26 12 -40 15 -14 3 -57 26 -95 50 -39 25 -79 46 -91 46 -11 0 -29 9 -38
19 -10 11 -33 27 -53 36 -19 9 -37 23 -40 31 -3 9 -20 14 -45 14 -31 0 -45 6
-60 25 -19 25 -40 37 -133 83 -22 10 -57 36 -78 56 -21 20 -46 36 -56 36 -21
0 -122 64 -134 85 -4 8 -21 15 -36 15 -16 0 -34 7 -41 15 -16 20 -126 98 -167
118 -17 9 -34 26 -38 37 -4 12 -15 20 -28 20 -41 0 -65 12 -75 36 -6 13 -26
30 -44 37 -18 8 -42 24 -52 36 -11 11 -24 21 -31 21 -6 0 -26 16 -45 35 -19
19 -39 35 -46 35 -7 0 -39 22 -71 50 -31 27 -67 51 -78 52 -11 2 -26 15 -33
31 -7 15 -17 27 -21 27 -5 0 -37 22 -72 50 -35 27 -75 57 -88 67 -13 10 -52
44 -87 75 -35 32 -68 58 -73 58 -10 0 -69 53 -148 131 -23 23 -55 48 -72 55
-17 7 -31 19 -31 27 0 18 -52 67 -72 67 -8 0 -21 14 -28 30 -7 17 -16 30 -20
30 -4 0 -19 11 -34 25 -15 14 -31 25 -35 25 -5 0 -12 11 -15 25 -4 14 -13 25
-20 25 -13 0 -177 158 -297 286 -26 27 -53 55 -60 62 -8 7 -22 21 -31 30 -10
9 -18 22 -18 29 0 7 -12 19 -28 25 -33 16 -162 149 -162 168 0 8 -14 28 -31
44 -50 51 -129 146 -129 156 0 5 -19 27 -43 49 -23 22 -56 58 -72 81 -17 23
-51 67 -76 98 -25 31 -48 65 -52 75 -4 9 -17 21 -30 26 -14 5 -27 20 -30 33
-4 13 -27 47 -52 76 -25 30 -45 59 -45 66 0 7 -16 27 -35 46 -19 19 -35 38
-35 43 0 5 -16 27 -35 50 -19 22 -35 47 -35 54 0 7 -11 19 -25 25 -14 6 -28
22 -30 35 -3 13 -7 34 -10 47 -3 14 -14 28 -25 31 -11 4 -32 28 -46 53 -46 86
-71 123 -92 138 -12 8 -24 30 -28 49 -3 20 -11 39 -18 43 -19 12 -74 97 -81
125 -4 15 -21 42 -37 59 -16 18 -50 71 -76 120 -25 48 -54 90 -64 94 -16 5
-25 36 -19 68 1 5 -7 18 -17 30 -11 11 -27 35 -35 52 -9 17 -23 36 -31 43 -9
8 -20 30 -26 50 -5 20 -28 64 -50 98 -22 34 -40 68 -40 75 0 17 -78 176 -90
183 -6 3 -10 20 -10 37 0 21 -11 43 -35 69 -19 22 -35 47 -35 57 0 9 -7 26
-15 36 -8 11 -15 27 -15 37 0 19 -46 111 -77 156 -14 19 -23 46 -23 69 0 20
-6 45 -13 53 -7 9 -23 43 -36 76 -12 33 -29 72 -37 87 -8 14 -14 32 -14 38 0
7 -20 53 -44 104 -24 50 -47 112 -50 138 -4 25 -14 52 -21 58 -8 7 -15 20 -15
29 0 23 -33 116 -47 133 -7 7 -15 38 -19 68 -6 49 -27 107 -53 150 -5 8 -13
38 -19 65 -17 85 -33 139 -43 151 -5 7 -12 36 -16 65 -3 30 -19 82 -34 116
-22 47 -29 77 -29 124 0 35 -6 72 -15 87 -20 36 -45 133 -54 207 -5 34 -13 70
-19 81 -6 11 -13 45 -15 76 -3 30 -9 64 -15 74 -5 11 -13 48 -17 84 -4 35 -14
83 -22 105 -21 57 -34 127 -42 225 -4 47 -10 90 -14 97 -4 6 -14 85 -22 175
-27 291 -35 372 -47 433 -6 33 -12 166 -14 295 -3 181 -8 245 -20 283 -13 39
-15 74 -10 190 4 78 3 167 -2 197 -7 41 -6 72 5 120 24 103 23 103 27 370 2
140 8 282 14 315 11 60 20 144 47 435 7 85 18 169 23 185 6 17 15 80 22 140 7
61 20 135 30 165 10 30 23 84 29 120 22 136 38 217 46 229 4 8 11 41 15 75 10
76 38 185 56 211 8 11 14 46 14 82 0 35 4 71 9 81 20 40 51 129 51 148 0 11
16 70 35 130 19 60 35 119 35 132 0 13 9 35 20 49 11 14 20 34 20 44 0 10 4
20 9 23 4 3 11 31 14 62 3 31 12 63 20 73 9 9 23 43 32 76 9 33 25 78 36 101
10 22 19 50 19 62 0 12 6 36 14 54 8 18 17 40 20 48 4 8 17 35 31 59 14 24 25
49 25 55 0 13 45 124 54 133 3 3 6 14 6 23 0 10 9 29 20 43 13 16 20 40 20 67
0 33 7 50 30 77 16 18 30 41 30 49 0 9 9 27 20 41 11 14 20 35 20 47 0 12 7
31 15 42 8 10 15 26 15 35 0 9 16 40 35 68 19 28 35 59 35 70 0 10 7 24 14 31
8 6 23 33 32 58 10 26 26 58 36 71 10 13 18 34 18 46 0 12 13 40 28 61 32 45
62 102 62 119 0 6 13 29 30 51 16 21 30 45 30 52 0 7 9 20 20 29 11 10 22 36
26 61 5 31 12 46 25 49 10 3 37 44 65 100 26 52 53 97 60 100 7 3 26 30 41 61
30 62 78 138 94 147 5 4 9 15 9 25 0 11 13 34 28 52 16 18 47 62 70 98 22 36
53 79 67 97 15 18 31 48 36 66 5 21 19 38 34 45 14 6 25 18 25 26 0 8 16 33
35 56 19 23 35 45 35 50 0 4 12 20 28 35 15 15 34 39 42 55 8 15 34 51 58 80
23 28 42 60 42 71 0 10 7 19 14 19 8 0 67 68 132 150 64 83 120 150 125 150 5
0 15 13 24 30 8 16 34 49 58 74 101 107 129 140 138 163 5 13 19 28 32 34 14
6 37 31 52 55 15 24 33 44 39 44 6 0 24 17 41 38 24 30 205 211 599 598 22 22
48 44 58 50 20 12 103 84 175 152 25 23 49 42 53 42 5 0 28 18 52 41 23 22 95
81 158 130 63 49 121 98 128 109 7 11 19 20 27 20 8 0 38 19 67 43 29 23 64
50 78 59 14 9 38 28 54 42 16 14 32 26 37 26 4 0 26 15 48 34 23 19 50 38 61
41 10 3 22 15 25 25 4 11 21 24 41 29 19 5 49 21 67 36 18 14 66 48 107 75 42
26 82 55 89 63 7 9 26 19 42 22 16 4 31 10 34 15 9 14 93 69 129 84 18 7 48
27 67 43 19 16 69 47 113 69 43 21 85 49 94 61 9 15 24 23 42 23 15 0 39 9 53
20 14 11 29 20 35 20 5 0 28 14 50 30 23 17 47 30 53 30 13 0 55 23 126 67 28
18 60 33 70 33 10 0 29 9 43 20 14 11 30 20 35 20 9 0 105 48 220 108 22 11
56 27 75 36 19 8 56 24 81 35 25 12 50 21 56 21 6 0 27 13 48 30 24 19 47 29
68 28 27 -1 60 12 137 52 9 4 30 11 47 14 17 4 37 14 44 22 6 8 21 14 33 14
20 0 67 20 106 45 23 15 112 45 133 45 10 0 35 9 55 19 20 11 64 27 97 36 33
10 67 23 75 30 8 7 38 15 65 18 44 4 107 27 155 56 13 8 50 17 155 38 17 3 39
12 50 19 11 7 45 16 75 20 30 4 60 10 65 14 25 20 139 50 187 50 30 0 62 6 74
14 11 8 38 17 60 21 21 4 58 13 82 21 23 8 59 14 80 14 20 0 50 7 66 15 15 8
48 15 73 15 24 0 54 5 66 12 12 7 47 15 77 19 30 4 91 16 135 27 95 24 210 42
266 42 22 0 49 5 60 11 20 10 205 31 449 50 69 5 151 16 183 24 47 12 108 14
305 9 207 -4 251 -3 272 9 39 23 488 24 532 1z"/>
<path d="M17885 30083 c-2156 -53 -4199 -837 -5840 -2241 -829 -709 -1554
-1596 -2088 -2553 -568 -1018 -949 -2176 -1096 -3329 -53 -413 -73 -752 -73
-1205 0 -545 37 -1023 116 -1500 l21 -130 3030 -5 3029 -5 13 -25 c10 -20 13
-413 13 -1918 0 -1707 -2 -1893 -16 -1899 -8 -3 -28 4 -44 16 -16 11 -32 21
-36 21 -13 0 -176 114 -181 126 -2 7 -15 15 -27 18 -12 3 -53 26 -90 51 -37
25 -71 45 -75 45 -4 0 -34 24 -67 53 -32 29 -80 65 -106 80 -26 15 -51 33 -55
40 -4 7 -25 23 -45 36 -21 12 -38 26 -38 31 0 5 -9 12 -20 15 -11 4 -48 34
-83 68 -34 34 -81 75 -103 90 -57 38 -604 592 -604 611 0 8 -20 31 -44 51 -24
19 -56 54 -72 78 -15 23 -33 47 -39 52 -24 23 -115 144 -115 153 0 6 -22 34
-48 64 -46 50 -112 142 -112 155 0 3 -16 25 -35 49 -19 23 -35 48 -35 54 0 6
-15 30 -34 53 -29 37 -70 101 -142 225 l-22 37 -1686 3 -1686 2 34 -92 c160
-442 446 -1032 730 -1508 119 -199 382 -590 534 -791 146 -195 382 -481 548
-665 151 -168 542 -556 714 -708 881 -783 1891 -1389 2984 -1791 989 -363
2009 -552 3061 -567 l210 -3 3 5415 2 5415 -22 17 c-22 17 -192 18 -3011 18
-2693 0 -2991 2 -3018 16 -20 10 -29 20 -25 31 3 8 9 32 12 54 4 22 11 42 15
45 5 3 9 15 9 27 0 13 7 32 15 44 8 11 18 47 21 79 4 33 19 84 35 114 15 30
32 78 39 105 6 28 20 64 30 80 11 17 22 51 26 75 4 25 15 54 25 65 22 24 39
68 39 99 0 13 7 29 14 36 17 13 56 90 56 108 0 15 39 90 51 98 5 3 9 15 9 28
0 13 9 31 20 41 10 9 27 43 36 73 9 31 28 72 43 92 15 19 38 58 50 85 12 28
27 57 32 65 5 8 13 25 18 37 6 11 14 24 20 27 6 4 20 26 31 49 44 88 120 209
159 252 16 17 33 44 40 62 7 17 21 39 32 49 10 9 19 21 19 25 0 14 61 101 112
161 26 31 48 61 48 67 0 6 15 28 33 48 18 21 51 63 74 93 23 30 51 63 62 72
12 10 21 24 21 32 0 16 88 109 113 119 10 4 21 16 25 28 11 27 492 509 509
509 7 0 19 11 25 25 6 13 19 27 29 30 9 3 37 25 61 48 52 50 140 124 171 146
12 8 39 29 60 48 20 18 42 33 48 33 6 0 36 22 67 48 51 44 147 112 157 112 2
0 24 14 48 30 25 17 49 30 54 30 5 0 20 12 34 26 13 14 58 46 99 72 41 25 89
56 106 69 36 27 50 29 58 8 3 -9 6 -520 6 -1137 0 -887 3 -1123 12 -1130 7 -4
713 -8 1569 -8 1196 0 1558 3 1567 12 9 9 12 637 11 2773 -1 1518 -4 2920 -8
3115 l-6 355 -80 1 c-44 0 -129 -1 -190 -3z"/>
<path d="M21392 26220 l-22 -9 2 -5523 3 -5523 28 -3 c16 -2 38 5 53 17 15 12
32 21 38 21 7 0 25 14 41 30 17 18 38 30 50 29 12 -2 37 13 59 34 22 20 43 37
47 37 5 0 28 14 52 30 25 17 48 30 52 30 3 0 21 16 39 35 19 19 43 35 55 35
12 0 24 6 27 14 3 7 28 28 57 46 29 19 79 57 112 85 33 29 70 55 82 59 12 4
36 25 53 46 17 21 41 42 53 46 12 4 39 27 60 50 21 24 44 44 51 44 6 0 57 45
111 100 55 55 105 100 110 100 13 0 205 193 205 206 0 5 45 54 100 109 55 54
100 105 100 111 0 6 18 28 39 47 22 20 47 49 55 66 9 16 30 39 47 52 17 12 37
36 44 53 7 17 32 51 55 76 23 25 60 73 82 107 22 34 47 64 54 67 8 3 14 15 14
27 0 12 16 36 35 55 19 18 35 36 35 39 0 4 12 26 28 49 15 22 34 54 42 70 8
16 25 35 37 44 15 9 23 24 23 41 0 17 11 38 30 56 17 16 30 34 30 39 0 6 14
31 30 55 17 25 33 56 37 70 3 13 21 37 39 54 22 18 34 38 34 54 0 14 9 38 21
54 32 46 79 137 79 155 0 8 15 39 34 67 18 29 41 76 51 105 9 28 21 52 26 52
5 0 12 12 15 28 4 15 19 50 34 77 15 28 29 70 32 93 4 24 18 58 32 77 15 19
30 55 35 81 5 25 14 51 20 57 6 6 11 20 11 32 0 12 7 30 15 41 8 10 15 27 15
36 0 20 12 48 45 107 18 31 25 59 25 96 0 28 5 56 11 62 15 15 48 111 49 139
0 12 7 41 16 65 9 24 19 69 24 99 9 69 28 142 50 200 10 25 21 74 25 110 7 75
32 218 40 230 3 5 12 77 20 162 9 84 18 161 21 171 11 36 25 216 36 455 14
321 -5 775 -41 977 -6 33 -14 98 -17 145 -3 47 -12 112 -19 145 -18 75 -31
155 -46 267 -6 50 -17 92 -25 99 -8 6 -14 22 -14 34 0 12 -7 42 -15 65 -8 23
-15 59 -15 79 0 20 -9 60 -20 89 -11 29 -20 62 -20 75 -1 24 -29 109 -48 144
-7 12 -12 41 -12 65 0 40 -22 99 -48 131 -6 7 -13 26 -17 42 -4 17 -12 44 -20
60 -20 48 -36 97 -45 137 -4 20 -16 49 -26 64 -34 48 -44 69 -44 95 0 15 -16
57 -35 95 -19 37 -35 73 -35 80 0 6 -7 17 -15 24 -8 7 -17 27 -21 46 -3 18
-23 59 -43 91 -21 32 -41 73 -44 91 -4 19 -16 45 -27 59 -11 14 -20 30 -20 35
0 5 -11 26 -25 46 -14 20 -25 46 -25 58 0 12 -14 35 -30 51 -17 15 -42 51 -55
78 -35 71 -57 108 -88 145 -15 17 -27 43 -27 56 0 14 -6 27 -14 30 -15 6 -116
157 -116 173 0 5 -13 19 -30 31 -16 12 -33 33 -37 48 -10 35 -84 139 -150 211
-29 32 -53 65 -53 73 0 8 -22 35 -50 60 -27 25 -50 52 -50 60 0 7 -20 31 -45
51 -25 21 -45 43 -45 50 0 7 -42 55 -93 107 -52 52 -98 104 -104 114 -14 26
-194 206 -206 206 -5 0 -56 47 -114 105 -57 58 -111 105 -118 105 -7 0 -28 17
-47 39 -18 21 -46 45 -63 54 -16 8 -40 29 -53 46 -12 17 -37 37 -55 45 -18 8
-52 35 -77 60 -25 25 -50 45 -56 46 -6 0 -40 23 -74 50 -34 28 -69 50 -77 50
-8 0 -26 12 -41 28 -27 27 -51 44 -87 61 -12 5 -27 16 -34 25 -7 9 -19 16 -27
16 -7 0 -28 16 -47 35 -23 23 -40 33 -50 29 -11 -4 -28 5 -48 25 -17 17 -34
31 -38 31 -4 0 -22 11 -41 25 -38 28 -36 27 -68 15z"/>
<path d="M28780 32345 l0 -265 323 -2 322 -3 3 -1227 2 -1228 290 0 290 0 0
1230 0 1230 325 0 325 0 0 265 0 265 -940 0 -940 0 0 -265z"/>
<path d="M30900 31115 l0 -1495 290 0 290 0 -1 378 c0 237 -10 623 -28 1037
-15 363 -26 662 -24 664 2 2 5 2 7 0 2 -2 136 -470 297 -1039 l294 -1035 196
-3 195 -2 299 1050 c165 577 302 1050 305 1050 3 0 4 -30 3 -67 -30 -653 -53
-1380 -53 -1671 l0 -362 290 0 290 0 0 1495 0 1495 -382 -2 -382 -3 -280
-1037 c-154 -571 -283 -1038 -286 -1038 -4 0 -129 460 -279 1023 -150 562
-274 1030 -277 1040 -5 16 -32 17 -385 17 l-379 0 0 -1495z"/>
</g>
</svg>
